<svg width="353" height="85" viewBox="0 0 353 85" fill="none" xmlns="http://www.w3.org/2000/svg">
<path d="M304.95 76.326C325.923 76.326 342.924 59.3245 342.924 38.352C342.924 17.3795 325.923 0.377991 304.95 0.377991C283.978 0.377991 266.976 17.3795 266.976 38.352C266.976 59.3245 283.978 76.326 304.95 76.326Z" fill="#FFAE12"/>
<path d="M38.275 84.341H38.094C31.421 83.881 26.318 82.894 22.036 81.23C17.5818 79.58 13.6392 76.7889 10.603 73.136C10.4388 73.2125 10.2985 73.3321 10.197 73.482C9.92728 73.9685 9.51011 74.3568 9.00558 74.591C8.50105 74.8252 7.9352 74.8932 7.38954 74.7852C6.84388 74.6773 6.34658 74.3989 5.96927 73.9902C5.59195 73.5815 5.35411 73.0636 5.28999 72.511C5.24614 72.1323 5.22411 71.7513 5.224 71.37C4.83375 71.6667 4.3682 71.8481 3.88011 71.8937C3.39202 71.9394 2.90092 71.8473 2.46245 71.6281C2.02399 71.4089 1.65571 71.0712 1.39935 70.6534C1.14299 70.2355 1.0088 69.7542 1.01199 69.264C1.02775 67.3351 1.33108 65.4194 1.912 63.58C2.44453 62.1699 2.59595 60.6443 2.351 59.157C1.1434 53.0655 1.57757 46.7624 3.60899 40.894C2.64504 39.3787 1.95551 37.7055 1.572 35.951C1.12262 33.8929 0.935463 31.7861 1.015 29.681C1.07761 27.3378 1.37917 25.007 1.91499 22.725C2.01878 22.3245 2.21572 21.9541 2.48977 21.6441C2.76381 21.3341 3.10721 21.0932 3.492 20.941C5.38308 20.2817 7.36099 19.9047 9.362 19.822C9.913 19.786 10.481 19.768 11.05 19.768C14.9327 19.8016 18.7764 20.5473 22.39 21.968C26.4431 20.4904 30.6945 19.6275 35.003 19.408H47.5C51.8096 19.6188 56.0623 20.4819 60.113 21.968C63.729 20.5599 67.5726 19.8268 71.453 19.805C72.022 19.805 72.59 19.823 73.144 19.859C75.144 19.9419 77.1209 20.319 79.011 20.978C79.3969 21.1297 79.7414 21.3707 80.0161 21.6814C80.2907 21.992 80.4878 22.3634 80.591 22.765C81.1247 25.0464 81.4262 27.3759 81.491 29.718C81.5698 31.8233 81.3816 33.93 80.931 35.988C80.5483 37.7385 79.8619 39.4084 78.903 40.922C80.9334 46.7907 81.3665 53.0938 80.158 59.185C79.9141 60.6726 80.0666 62.1981 80.6 63.608C81.183 65.4469 81.4864 67.363 81.5 69.292C81.5024 69.6381 81.4363 69.9813 81.3055 70.3017C81.1746 70.6221 80.9817 70.9135 80.7378 71.1591C80.4939 71.4047 80.2039 71.5996 79.8843 71.7326C79.5648 71.8656 79.2221 71.934 78.876 71.934C78.2968 71.9362 77.7335 71.7443 77.276 71.389C77.2744 71.7699 77.2523 72.1505 77.21 72.529C77.1336 73.1671 76.8265 73.7553 76.3464 74.1826C75.8664 74.61 75.2467 74.847 74.604 74.849C74.1376 74.8505 73.6793 74.7267 73.2771 74.4906C72.8748 74.2546 72.5432 73.9149 72.317 73.507C72.2117 73.351 72.069 73.2238 71.902 73.137C68.8626 76.7878 64.9212 79.5802 60.469 81.237C56.184 82.901 51.082 83.888 44.408 84.348H38.275V84.341Z" fill="white"/>
<path d="M38.275 81.717C26.784 80.926 17.815 78.407 11.858 70.488C11.1003 70.3199 10.3089 70.3959 9.59707 70.7051C8.88521 71.0142 8.28942 71.5406 7.895 72.209C7.895 72.209 7.495 68.899 9.095 67.717C6.321 66.661 3.634 69.303 3.634 69.303C3.65465 67.6756 3.90685 66.0594 4.383 64.503C5.07466 62.6601 5.26783 60.6674 4.943 58.726C3.71499 52.6218 4.27935 46.2927 6.568 40.502C1.549 34.692 4.462 23.402 4.462 23.402C4.462 23.402 11.984 20.429 22.427 24.789C27.975 22.28 35.109 22.015 35.109 22.015H47.409C47.409 22.015 54.543 22.28 60.091 24.789C70.525 20.429 78.056 23.402 78.056 23.402C78.056 23.402 80.956 34.697 75.95 40.502C78.2361 46.2919 78.8054 52.6179 77.59 58.723C77.2647 60.6646 77.4589 62.6577 78.153 64.5C78.6292 66.0564 78.8813 67.6726 78.902 69.3C78.902 69.3 76.215 66.658 73.441 67.714C75.027 68.914 74.629 72.206 74.629 72.206C74.2341 71.5382 73.6382 71.0124 72.9264 70.7038C72.2145 70.3952 71.4233 70.3197 70.666 70.488C64.721 78.416 55.739 80.925 44.246 81.717H38.275Z" fill="#FFDDBA"/>
<path d="M35.107 22.011C32.9622 22.1275 30.829 22.4029 28.725 22.835C27.5345 24.1897 26.8646 25.9237 26.835 27.727C26.835 33.113 33.105 37.478 40.835 37.478H41.668C49.401 37.478 55.668 33.112 55.668 27.727C55.6381 25.9232 54.967 24.189 53.775 22.835C51.6709 22.4029 49.5377 22.1275 47.393 22.011H35.107Z" fill="#FFAE12"/>
<path d="M41.254 59.019C28.515 59.119 18.231 65.939 18.231 74.364C18.2312 75.0984 18.311 75.8307 18.469 76.548C23.798 79.848 30.456 81.179 38.276 81.718H44.233C52.056 81.179 58.714 79.844 64.043 76.549C64.1986 75.8314 64.2773 75.0992 64.278 74.365C64.281 65.948 53.996 59.115 41.254 59.019Z" fill="white"/>
<path d="M44.233 82.641H38.215C31.715 82.193 26.782 81.241 22.654 79.632C18.1844 77.9866 14.2683 75.1161 11.354 71.349C10.8367 71.2897 10.3134 71.3798 9.84569 71.6086C9.37803 71.8374 8.98566 72.1953 8.71498 72.64C8.62269 72.8136 8.47745 72.9532 8.30038 73.0385C8.12332 73.1239 7.92365 73.1505 7.73039 73.1146C7.53714 73.0787 7.36037 72.9821 7.22578 72.8388C7.09119 72.6956 7.00579 72.5131 6.98199 72.318C6.82266 70.9961 6.9814 69.6552 7.44499 68.407C6.25629 68.5992 5.15209 69.1421 4.27399 69.966C4.14302 70.0925 3.97771 70.1776 3.79867 70.2108C3.61964 70.2439 3.43481 70.2236 3.26725 70.1523C3.09969 70.0811 2.95683 69.9621 2.85648 69.8101C2.75613 69.6582 2.70275 69.4801 2.70299 69.298C2.72155 67.5629 2.99308 65.8398 3.50899 64.183C4.14386 62.4924 4.32251 60.6645 4.02698 58.883C2.80507 52.7897 3.3221 46.4754 5.51899 40.662C4.39988 39.1545 3.61975 37.423 3.23199 35.586C2.81332 33.6691 2.6406 31.7066 2.71799 29.746C2.77659 27.5296 3.06072 25.3249 3.56599 23.166C3.60348 23.0233 3.67474 22.8916 3.77377 22.7821C3.87279 22.6727 3.99668 22.5886 4.13499 22.537C5.86213 21.9487 7.66493 21.6119 9.48799 21.537C13.9141 21.3117 18.3345 22.0787 22.426 23.782C26.4754 22.2158 30.7473 21.3012 35.083 21.072H47.449C51.7879 21.2848 56.0636 22.1993 60.11 23.78C64.2008 22.0743 68.6216 21.3061 73.048 21.532C74.8701 21.6062 76.6721 21.943 78.398 22.532C78.5338 22.5856 78.655 22.6705 78.7518 22.7798C78.8486 22.8891 78.9182 23.0197 78.955 23.161C79.4605 25.32 79.7467 27.5245 79.809 29.741C79.8846 31.7016 79.7115 33.6639 79.294 35.581C78.9056 37.4193 78.1245 39.1519 77.004 40.66C79.1985 46.4728 79.7182 52.7846 78.504 58.878C78.207 60.6595 78.3857 62.4878 79.022 64.178C79.5351 65.8354 79.8065 67.5581 79.828 69.293C79.8296 69.4761 79.7769 69.6555 79.6764 69.8085C79.5759 69.9615 79.4323 70.0812 79.2636 70.1525C79.095 70.2237 78.909 70.2433 78.7293 70.2087C78.5495 70.174 78.3841 70.0868 78.254 69.958C77.3714 69.1412 76.2691 68.6003 75.083 68.402C75.5469 69.6501 75.7067 70.9909 75.549 72.313C75.5276 72.5096 75.4436 72.6941 75.3093 72.8392C75.1749 72.9843 74.9975 73.0824 74.8031 73.1188C74.6088 73.1553 74.4079 73.1282 74.2301 73.0416C74.0523 72.955 73.9071 72.8135 73.816 72.638C73.6226 72.3266 73.3714 72.055 73.076 71.838C72.5274 71.4402 71.8488 71.2642 71.176 71.345C68.2593 75.1112 64.3442 77.9831 59.876 79.634C55.757 81.234 50.814 82.185 44.315 82.643L44.233 82.641ZM38.309 80.794H44.203C57.363 79.894 64.813 76.735 69.913 69.935C70.0518 69.7505 70.2549 69.6249 70.482 69.583C71.5539 69.3563 72.6715 69.5149 73.638 70.031C73.5835 69.4312 73.3144 68.8712 72.88 68.454C72.7476 68.3552 72.6441 68.2226 72.5806 68.07C72.517 67.9175 72.4957 67.7507 72.5188 67.587C72.5419 67.4234 72.6086 67.269 72.7119 67.1401C72.8153 67.0111 72.9514 66.9123 73.106 66.854C73.8858 66.5898 74.7146 66.5019 75.5325 66.5967C76.3505 66.6914 77.1372 66.9665 77.836 67.402C77.7478 66.5232 77.5609 65.6571 77.279 64.82C76.5329 62.824 76.3259 60.6665 76.679 58.565C77.88 52.6329 77.329 46.4794 75.093 40.855C75.028 40.6972 75.0082 40.5244 75.0358 40.3559C75.0633 40.1875 75.1371 40.03 75.249 39.901C79.326 35.177 77.74 26.271 77.277 24.108C75.8337 23.6941 74.3476 23.4479 72.848 23.374C68.5963 23.1749 64.3552 23.9489 60.448 25.637C60.3321 25.689 60.2065 25.7159 60.0795 25.7159C59.9525 25.7159 59.8269 25.689 59.711 25.637C54.521 23.29 47.76 22.962 47.393 22.947H35.125C30.8973 23.155 26.7336 24.0641 22.804 25.637C22.6885 25.6886 22.5635 25.7152 22.437 25.7152C22.3105 25.7152 22.1855 25.6886 22.07 25.637C18.1625 23.9497 13.9216 23.1758 9.66999 23.374C8.17037 23.4479 6.68425 23.6942 5.24099 24.108C4.77799 26.271 3.18898 35.177 7.26898 39.901C7.38004 40.0304 7.45311 40.1881 7.48011 40.3564C7.50712 40.5248 7.487 40.6974 7.42198 40.855C5.1869 46.4797 4.63687 52.6332 5.83898 58.565C6.19065 60.6666 5.98374 62.8236 5.23899 64.82C4.95598 65.655 4.76715 66.5191 4.67599 67.396C5.37481 66.9593 6.16195 66.6833 6.98049 66.588C7.79904 66.4927 8.62852 66.5805 9.40898 66.845C9.56361 66.9033 9.69972 67.0021 9.80303 67.1311C9.90634 67.26 9.97305 67.4144 9.99616 67.578C10.0193 67.7417 9.99793 67.9085 9.93439 68.061C9.87084 68.2136 9.76743 68.3462 9.63499 68.445C9.20066 68.861 8.93144 69.4201 8.87699 70.019C9.84271 69.5071 10.9572 69.3496 12.027 69.574C12.253 69.6166 12.4549 69.7421 12.593 69.926C17.695 76.722 25.145 79.882 38.308 80.793L38.309 80.794Z" fill="#140C07"/>
<path d="M7.32999 25.186C11.0589 24.6798 14.8523 25.3722 18.162 27.163C18.6594 27.4558 19.0833 27.8583 19.4014 28.3399C19.7194 28.8215 19.9232 29.3694 19.9972 29.9418C20.0712 30.5142 20.0135 31.096 19.8283 31.6426C19.6432 32.1893 19.3356 32.6864 18.929 33.096C17.2927 34.7765 15.3738 36.1565 13.26 37.173C12.5089 37.5246 11.6509 37.5719 10.8657 37.305C10.0805 37.038 9.42911 36.4776 9.04799 35.741C7.32046 32.5106 6.7161 28.7975 7.32999 25.186Z" fill="#FFAE12"/>
<path d="M75.1779 25.186C71.449 24.68 67.6557 25.3723 64.3459 27.163C63.8488 27.456 63.4251 27.8588 63.1073 28.3405C62.7896 28.8222 62.586 29.3702 62.5123 29.9426C62.4386 30.5149 62.4967 31.0966 62.6821 31.6431C62.8674 32.1896 63.1752 32.6866 63.582 33.096C65.2171 34.7778 67.1362 36.158 69.2509 37.173C70.0036 37.5292 70.8653 37.579 71.654 37.3118C72.4427 37.0446 73.0967 36.4813 73.478 35.741C75.1899 32.5053 75.7874 28.7955 75.1779 25.186Z" fill="#FFAE12"/>
<path d="M11.877 38.123C11.1688 38.1214 10.475 37.9237 9.8722 37.552C9.26945 37.1803 8.78136 36.649 8.46199 36.017C6.68007 32.6582 6.06016 28.8041 6.69899 25.056C6.7226 24.9272 6.78525 24.8088 6.87846 24.7168C6.97166 24.6249 7.0909 24.5638 7.21999 24.542C11.0957 23.9978 15.0435 24.7185 18.477 26.597C19.0568 26.9386 19.5509 27.4081 19.9219 27.9696C20.2928 28.5311 20.5307 29.1698 20.6175 29.8371C20.7043 30.5044 20.6377 31.1828 20.4227 31.8205C20.2077 32.4582 19.8501 33.0384 19.377 33.517C17.6884 35.2532 15.7075 36.6789 13.525 37.729C13.011 37.9792 12.4485 38.1136 11.877 38.123ZM7.87698 25.76C7.42203 29.0895 8.0229 32.4779 9.59499 35.448C9.89915 36.0419 10.4229 36.4939 11.0549 36.7079C11.687 36.9219 12.3776 36.881 12.98 36.594C15.0267 35.6088 16.8843 34.2714 18.468 32.643C18.8057 32.302 19.061 31.8883 19.2143 31.4335C19.3675 30.9787 19.4148 30.4948 19.3523 30.019C19.2899 29.5431 19.1194 29.0879 18.854 28.688C18.5886 28.2881 18.2353 27.9543 17.821 27.712C14.7823 26.0703 11.3169 25.3896 7.88298 25.76H7.87698Z" fill="#140C07"/>
<path d="M70.6241 38.123C70.054 38.1213 69.4912 37.995 68.9751 37.753C66.7921 36.7037 64.8111 35.2779 63.123 33.541C62.65 33.0624 62.2923 32.4822 62.0773 31.8445C61.8624 31.2068 61.7957 30.5285 61.8825 29.8611C61.9693 29.1938 62.2072 28.5551 62.5782 27.9936C62.9491 27.4321 63.4433 26.9626 64.023 26.621C67.4537 24.7387 71.4015 24.0177 75.276 24.566C75.4053 24.5879 75.5246 24.6491 75.6178 24.7413C75.711 24.8334 75.7736 24.952 75.797 25.081C76.4351 28.8288 75.8163 32.6824 74.037 36.042C73.7144 36.6691 73.2251 37.1951 72.623 37.5622C72.0209 37.9293 71.3293 38.1234 70.6241 38.123ZM72.832 25.67C69.9824 25.628 67.1713 26.3323 64.6781 27.713C64.2633 27.9549 63.9095 28.2886 63.6437 28.6884C63.3779 29.0883 63.2073 29.5437 63.1448 30.0198C63.0824 30.4958 63.1297 30.9798 63.2834 31.4347C63.437 31.8896 63.6928 32.3033 64.0311 32.644C65.6136 34.2724 67.4702 35.6097 69.5161 36.595C70.1189 36.8821 70.8099 36.9231 71.4425 36.7091C72.075 36.4952 72.5993 36.0431 72.9041 35.449C74.4761 32.4789 75.077 29.0905 74.6221 25.761C74.0291 25.6992 73.4332 25.6688 72.837 25.67H72.832Z" fill="#140C07"/>
<path d="M46.129 73.332C45.7452 73.33 45.3625 73.2918 44.9859 73.218C44.1962 73.0443 43.4536 72.7013 42.8094 72.2125C42.1652 71.7237 41.6348 71.1008 41.255 70.387C40.8765 71.1014 40.347 71.7247 39.7032 72.2136C39.0593 72.7025 38.3167 73.0453 37.5269 73.218C36.7566 73.4119 35.9492 73.4033 35.1831 73.193C34.4171 72.9828 33.7184 72.578 33.155 72.018C32.64 71.5008 32.242 70.8792 31.9879 70.195C31.9609 70.0984 31.9721 69.995 32.0193 69.9064C32.0666 69.8179 32.1461 69.7509 32.2414 69.7195C32.3367 69.6881 32.4405 69.6946 32.5311 69.7377C32.6217 69.7808 32.6922 69.8572 32.7279 69.951C33.0532 70.8712 33.7096 71.6373 34.5693 72.0995C35.4289 72.5618 36.4299 72.6871 37.377 72.451C38.1683 72.2631 38.9024 71.8863 39.5164 71.3529C40.1305 70.8195 40.6062 70.1453 40.903 69.388C40.9354 69.3229 40.9853 69.2681 41.0471 69.2299C41.1089 69.1916 41.1802 69.1713 41.2529 69.1713C41.3257 69.1713 41.3969 69.1916 41.4588 69.2299C41.5206 69.2681 41.5705 69.3229 41.603 69.388C41.8988 70.1464 42.3746 70.8214 42.9894 71.355C43.6042 71.8886 44.3395 72.2648 45.132 72.451C46.0786 72.6877 47.0795 72.5626 47.9388 72.1002C48.7981 71.6378 49.4539 70.8714 49.778 69.951C49.794 69.9022 49.8194 69.8571 49.8529 69.8181C49.8864 69.7792 49.9272 69.7472 49.973 69.724C50.0188 69.7009 50.0688 69.6869 50.12 69.6831C50.1712 69.6792 50.2227 69.6855 50.2715 69.7015C50.3202 69.7175 50.3654 69.743 50.4043 69.7765C50.4433 69.8099 50.4752 69.8508 50.4984 69.8966C50.5216 69.9424 50.5355 69.9923 50.5394 70.0435C50.5432 70.0948 50.537 70.1462 50.5209 70.195C50.2655 70.8785 49.8678 71.4999 49.354 72.018C48.933 72.4434 48.4302 72.7792 47.8759 73.005C47.3216 73.2308 46.7274 73.3421 46.129 73.332Z" fill="#140C07"/>
<path d="M41.2539 69.559C43.6536 69.559 45.5989 68.317 45.5989 66.785C45.5989 65.2529 43.6536 64.011 41.2539 64.011C38.8543 64.011 36.9089 65.2529 36.9089 66.785C36.9089 68.317 38.8543 69.559 41.2539 69.559Z" fill="#140C07"/>
<path d="M28.692 63.18C31.8826 63.18 34.469 59.9726 34.469 56.016C34.469 52.0594 31.8826 48.852 28.692 48.852C25.5015 48.852 22.915 52.0594 22.915 56.016C22.915 59.9726 25.5015 63.18 28.692 63.18Z" fill="#140C07"/>
<path d="M53.8159 63.18C57.0065 63.18 59.5929 59.9726 59.5929 56.016C59.5929 52.0594 57.0065 48.852 53.8159 48.852C50.6254 48.852 48.0389 52.0594 48.0389 56.016C48.0389 59.9726 50.6254 63.18 53.8159 63.18Z" fill="#140C07"/>
<path d="M24.6869 55.785C25.8732 55.785 26.8349 54.5914 26.8349 53.119C26.8349 51.6466 25.8732 50.453 24.6869 50.453C23.5006 50.453 22.5389 51.6466 22.5389 53.119C22.5389 54.5914 23.5006 55.785 24.6869 55.785Z" fill="white"/>
<path d="M57.823 55.785C59.0094 55.785 59.971 54.5914 59.971 53.119C59.971 51.6466 59.0094 50.453 57.823 50.453C56.6367 50.453 55.675 51.6466 55.675 53.119C55.675 54.5914 56.6367 55.785 57.823 55.785Z" fill="white"/>
<path d="M33.007 61.113C33.6035 61.113 34.087 60.5135 34.087 59.774C34.087 59.0345 33.6035 58.435 33.007 58.435C32.4105 58.435 31.927 59.0345 31.927 59.774C31.927 60.5135 32.4105 61.113 33.007 61.113Z" fill="white"/>
<path d="M49.504 61.113C50.1004 61.113 50.584 60.5135 50.584 59.774C50.584 59.0345 50.1004 58.435 49.504 58.435C48.9075 58.435 48.424 59.0345 48.424 59.774C48.424 60.5135 48.9075 61.113 49.504 61.113Z" fill="white"/>
<path d="M13.886 62.904C15.3667 62.904 16.567 61.7037 16.567 60.223C16.567 58.7423 15.3667 57.542 13.886 57.542C12.4053 57.542 11.205 58.7423 11.205 60.223C11.205 61.7037 12.4053 62.904 13.886 62.904Z" fill="#FFAE12"/>
<path d="M68.622 62.904C70.1027 62.904 71.303 61.7037 71.303 60.223C71.303 58.7423 70.1027 57.542 68.622 57.542C67.1414 57.542 65.941 58.7423 65.941 60.223C65.941 61.7037 67.1414 62.904 68.622 62.904Z" fill="#FFAE12"/>
<path d="M99.0949 79.659C98.2155 79.677 97.3473 79.4598 96.5799 79.03L96.4269 78.937C96.2321 79.047 96.0318 79.1471 95.8269 79.237C95.1727 79.5157 94.4681 79.657 93.7569 79.652C92.9534 79.6565 92.1619 79.4566 91.4569 79.071C90.7503 78.6867 90.1592 78.1205 89.7449 77.431C89.3208 76.7265 89.1 75.9183 89.107 75.096V70.196C89.0937 69.4595 89.3417 68.7421 89.8069 68.171C90.2563 67.6615 90.873 67.3296 91.5457 67.2351C92.2184 67.1407 92.9027 67.29 93.4749 67.656C93.9096 67.9446 94.2538 68.3502 94.4679 68.826C94.5349 68.9748 94.5901 69.1286 94.6329 69.286C94.7492 68.872 94.9539 68.4882 95.2329 68.161C95.4975 67.8598 95.8233 67.6185 96.1885 67.4531C96.5537 67.2878 96.95 67.2023 97.3509 67.2023C97.7518 67.2023 98.1481 67.2878 98.5134 67.4531C98.8786 67.6185 99.2044 67.8598 99.469 68.161C99.7354 68.4761 99.9342 68.8427 100.053 69.238C100.166 68.8442 100.359 68.4784 100.622 68.164C100.887 67.8602 101.214 67.6167 101.581 67.4498C101.948 67.2829 102.346 67.1966 102.749 67.1966C103.152 67.1966 103.55 67.2829 103.917 67.4498C104.284 67.6167 104.611 67.8602 104.876 68.164C105.343 68.7324 105.593 69.4476 105.583 70.183V76.574C105.595 77.2629 105.385 77.9373 104.983 78.497C104.748 78.825 104.442 79.0948 104.086 79.2855C103.731 79.4762 103.337 79.5828 102.934 79.597H102.834C102.291 79.598 101.76 79.4424 101.303 79.149C100.62 79.4895 99.8663 79.6655 99.1029 79.663L99.0949 79.659Z" fill="#140C07"/>
<path d="M101.456 77.238C100.818 77.8391 99.9707 78.1683 99.094 78.156C98.4757 78.1726 97.864 78.0242 97.322 77.726C97.0222 77.5453 96.7688 77.297 96.582 77.001C96.1709 77.3502 95.7131 77.6407 95.222 77.864C94.7591 78.0655 94.259 78.1677 93.754 78.164C93.2018 78.1682 92.6577 78.0305 92.174 77.764C91.7004 77.5066 91.3046 77.1267 91.028 76.664C90.7466 76.1942 90.6009 75.6556 90.607 75.108V70.192C90.5906 69.8074 90.7147 69.4299 90.956 69.13C91.075 68.9901 91.2246 68.8794 91.3931 68.8064C91.5616 68.7334 91.7446 68.7001 91.928 68.709C92.1783 68.7038 92.4245 68.7735 92.635 68.909C92.8336 69.0428 92.9909 69.2295 93.089 69.448C93.1926 69.6829 93.2448 69.9372 93.242 70.194V74.503C93.2334 74.6878 93.2637 74.8723 93.3311 75.0446C93.3985 75.2169 93.5013 75.3731 93.633 75.503C93.7694 75.6307 93.9298 75.7299 94.1049 75.795C94.28 75.8601 94.4664 75.8896 94.653 75.882C94.8335 75.8862 95.0128 75.8529 95.1796 75.784C95.3465 75.7151 95.4971 75.6123 95.622 75.482C95.7492 75.3535 95.8492 75.2007 95.9159 75.0326C95.9825 74.8645 96.0146 74.6847 96.01 74.504V70.195C95.9947 69.81 96.1198 69.4326 96.362 69.133C96.4868 68.9995 96.6378 68.8932 96.8055 68.8207C96.9732 68.7483 97.1541 68.7111 97.3368 68.7117C97.5195 68.7123 97.7002 68.7505 97.8675 68.824C98.0347 68.8976 98.1851 69.0048 98.309 69.139C98.5556 69.4345 98.6852 69.8103 98.673 70.195V74.238C98.6551 74.6576 98.7722 75.0718 99.007 75.42C99.1284 75.575 99.286 75.6977 99.466 75.7774C99.6459 75.8571 99.8427 75.8913 100.039 75.877C100.22 75.8782 100.399 75.8434 100.567 75.7747C100.734 75.7061 100.886 75.6048 101.014 75.4769C101.142 75.349 101.243 75.1969 101.312 75.0296C101.38 74.8622 101.415 74.6829 101.414 74.502V70.193C101.4 69.8092 101.525 69.4333 101.766 69.134C101.89 68.9995 102.04 68.8922 102.207 68.8188C102.375 68.7454 102.555 68.7076 102.738 68.7076C102.921 68.7076 103.101 68.7454 103.269 68.8188C103.436 68.8922 103.586 68.9995 103.71 69.134C103.952 69.4317 104.079 69.8064 104.068 70.19V76.581C104.07 76.956 103.949 77.3214 103.725 77.622C103.624 77.7674 103.489 77.8864 103.333 77.969C103.176 78.0517 103.002 78.0956 102.825 78.097C102.543 78.0787 102.271 77.9905 102.032 77.8406C101.793 77.6906 101.595 77.4835 101.456 77.238Z" fill="white"/>
<path d="M113.092 79.66C112.614 79.6712 112.139 79.5683 111.709 79.3596C111.278 79.1509 110.904 78.8425 110.616 78.46L110.126 77.828C110.01 78.1441 109.841 78.4383 109.626 78.698C109.362 79.0032 109.035 79.2479 108.668 79.4157C108.3 79.5834 107.901 79.6703 107.498 79.6703C107.094 79.6703 106.695 79.5834 106.327 79.4157C105.96 79.2479 105.633 79.0032 105.369 78.698C104.901 78.1314 104.65 77.4167 104.662 76.682V70.212C104.663 69.7463 104.766 69.2863 104.962 68.864C105.179 68.3795 105.534 67.9695 105.982 67.685C106.43 67.4005 106.951 67.2512 107.482 67.255C107.881 67.248 108.277 67.3293 108.641 67.4932C109.005 67.6571 109.329 67.8995 109.588 68.203C109.7 68.332 109.801 68.4709 109.888 68.618L110.36 68.134C110.659 67.8361 111.017 67.6033 111.411 67.4505C111.804 67.2977 112.225 67.228 112.647 67.246C113.271 67.2528 113.868 67.4995 114.314 67.935C114.712 68.2952 115.001 68.7603 115.147 69.277L115.168 69.352V69.43C115.201 69.6098 115.22 69.7921 115.222 69.975C115.223 70.3795 115.138 70.7795 114.971 71.148C114.805 71.5166 114.561 71.845 114.256 72.111L113.395 72.932L114.878 74.773C115.381 75.3191 115.683 76.0209 115.732 76.762C115.738 77.449 115.514 78.1181 115.094 78.662C114.859 78.971 114.557 79.2218 114.21 79.3949C113.862 79.568 113.48 79.6587 113.092 79.66Z" fill="#140C07"/>
<path d="M108.819 73.677V76.686C108.831 77.0683 108.705 77.4421 108.464 77.739C108.341 77.8738 108.19 77.9815 108.023 78.0551C107.856 78.1288 107.675 78.1668 107.492 78.1668C107.309 78.1668 107.128 78.1288 106.961 78.0551C106.794 77.9815 106.643 77.8738 106.52 77.739C106.279 77.4421 106.153 77.0683 106.165 76.686V70.211C106.163 69.9611 106.215 69.7138 106.318 69.486C106.415 69.2664 106.573 69.08 106.775 68.95C106.989 68.8197 107.235 68.7528 107.485 68.757C107.669 68.7473 107.852 68.7799 108.021 68.8524C108.19 68.9249 108.34 69.0352 108.46 69.175C108.702 69.4647 108.829 69.8329 108.818 70.21V71.886L111.454 69.178C111.613 69.0267 111.802 68.91 112.009 68.8355C112.215 68.761 112.435 68.7302 112.654 68.745C112.897 68.7543 113.128 68.8567 113.298 69.031C113.49 69.2032 113.63 69.425 113.704 69.672C113.721 69.7712 113.732 69.8714 113.737 69.972C113.738 70.1691 113.695 70.3639 113.611 70.5423C113.527 70.7208 113.405 70.8785 113.253 71.004L111.378 72.809L113.707 75.7C113.988 75.9983 114.177 76.3711 114.252 76.774C114.261 77.1274 114.147 77.473 113.93 77.752C113.834 77.8841 113.707 77.9909 113.56 78.0631C113.413 78.1354 113.251 78.171 113.088 78.167C112.841 78.1791 112.594 78.1289 112.371 78.0211C112.148 77.9133 111.956 77.7514 111.812 77.55L108.819 73.677Z" fill="white"/>
<path d="M119.861 79.713C119.036 79.7089 118.222 79.5344 117.468 79.2004C116.714 78.8664 116.037 78.38 115.48 77.772C114.407 76.5992 113.839 75.0514 113.897 73.463C113.895 72.6809 114.022 71.9038 114.273 71.163C114.529 70.4002 114.945 69.7007 115.492 69.111C116.044 68.5126 116.713 68.0335 117.457 67.703C118.59 67.2022 119.852 67.0708 121.064 67.3273C122.276 67.5837 123.376 68.2152 124.209 69.132C124.748 69.7177 125.157 70.4109 125.409 71.166C125.655 71.9054 125.778 72.6799 125.773 73.459C125.769 74.2305 125.638 74.996 125.385 75.725C125.132 76.4823 124.723 77.1783 124.185 77.768C123.635 78.3744 122.965 78.86 122.218 79.1941C121.47 79.5282 120.662 79.7036 119.843 79.709L119.861 79.713ZM119.744 72.713C119.595 72.9351 119.518 73.1977 119.524 73.465C119.524 73.6463 119.558 73.8261 119.624 73.995C119.655 74.0871 119.709 74.17 119.78 74.236C119.802 74.2394 119.824 74.2394 119.846 74.236C119.937 74.1637 120.006 74.0679 120.046 73.959C120.115 73.8058 120.15 73.6399 120.151 73.472C120.151 73.296 120.115 73.1218 120.046 72.96C120.008 72.8584 119.944 72.7688 119.859 72.701C119.834 72.6879 119.806 72.6827 119.778 72.686H119.763L119.744 72.713Z" fill="#140C07"/>
<path d="M115.402 73.464C115.403 72.85 115.504 72.2403 115.702 71.659C115.893 71.1011 116.2 70.59 116.602 70.159C117.017 69.7072 117.521 69.3457 118.082 69.097C118.638 68.8443 119.243 68.714 119.854 68.715C120.465 68.7203 121.068 68.8512 121.626 69.0996C122.184 69.348 122.684 69.7087 123.097 70.159C123.495 70.5906 123.797 71.1019 123.982 71.659C124.175 72.2411 124.272 72.8508 124.268 73.464C124.272 74.0713 124.175 74.6751 123.982 75.251C123.795 75.8072 123.493 76.3182 123.097 76.751C122.687 77.2011 122.189 77.5618 121.634 77.8108C121.078 78.0597 120.478 78.1916 119.869 78.198C119.254 78.194 118.647 78.0634 118.084 77.8145C117.522 77.5655 117.017 77.2036 116.601 76.751C116.194 76.3092 115.879 75.7913 115.673 75.2272C115.468 74.6631 115.375 74.0639 115.402 73.464ZM118.02 73.464C118.02 73.8293 118.088 74.1914 118.22 74.532C118.341 74.869 118.548 75.1687 118.82 75.402C119.086 75.6258 119.424 75.7455 119.771 75.739C120.133 75.7459 120.486 75.628 120.771 75.405C121.057 75.1779 121.28 74.8806 121.418 74.542C121.566 74.2022 121.643 73.8357 121.644 73.465C121.644 73.092 121.569 72.7228 121.424 72.379C121.288 72.0375 121.065 71.7376 120.777 71.509C120.488 71.2855 120.131 71.1676 119.766 71.175C119.506 71.1678 119.248 71.2297 119.02 71.3544C118.792 71.4792 118.6 71.6623 118.466 71.885C118.164 72.3555 118.009 72.9051 118.02 73.464Z" fill="white"/>
<path d="M132.185 79.659C131.855 79.6591 131.528 79.5929 131.224 79.4642C130.921 79.3356 130.646 79.1471 130.416 78.91C130.046 78.5393 129.768 78.0868 129.604 77.589V77.574C129.431 78.0979 129.129 78.5697 128.725 78.946C128.254 79.4006 127.626 79.656 126.971 79.659C126.304 79.6666 125.65 79.477 125.091 79.114C124.736 78.8906 124.445 78.5794 124.245 78.2105C124.045 77.8416 123.944 77.4274 123.951 77.008C123.966 76.437 124.08 75.8728 124.288 75.341L124.306 75.29L126.581 69.658C126.787 69.0869 127.1 68.56 127.502 68.105C127.772 67.8217 128.1 67.5992 128.463 67.4524C128.826 67.3057 129.217 67.238 129.608 67.254C130.271 67.2634 130.914 67.4849 131.443 67.886C131.971 68.287 132.357 68.8466 132.545 69.483L135 75.633C135.159 76.0737 135.237 76.5396 135.229 77.008C135.237 77.4275 135.136 77.8419 134.936 78.2109C134.736 78.5799 134.444 78.891 134.089 79.114C133.524 79.4808 132.863 79.6706 132.189 79.659H132.185Z" fill="#140C07"/>
<path d="M129.6 72.829L128.171 77.095C128.076 77.3803 127.912 77.6376 127.693 77.844C127.498 78.0344 127.237 78.1419 126.965 78.144C126.59 78.1518 126.221 78.0473 125.906 77.844C125.763 77.7574 125.645 77.6344 125.565 77.4876C125.485 77.3407 125.445 77.1753 125.449 77.008C125.465 76.6117 125.549 76.2211 125.696 75.853L127.971 70.221C128.111 69.8216 128.323 69.4513 128.597 69.129C128.728 69.0001 128.885 68.9005 129.057 68.8368C129.23 68.773 129.414 68.7465 129.597 68.759C129.957 68.7715 130.303 68.9029 130.58 69.1327C130.858 69.3624 131.052 69.6776 131.131 70.029L133.58 76.164C133.674 76.436 133.718 76.7224 133.712 77.01C133.716 77.1773 133.676 77.3428 133.596 77.4896C133.516 77.6364 133.398 77.7594 133.255 77.846C132.94 78.0494 132.571 78.1539 132.196 78.146C132.065 78.1459 131.936 78.1192 131.815 78.0677C131.695 78.0161 131.586 77.9407 131.496 77.846C131.291 77.6398 131.136 77.3884 131.045 77.112L129.6 72.829Z" fill="white"/>
<path d="M138.991 79.714C137.666 79.716 136.387 79.2261 135.402 78.339C134.117 77.1083 133.369 75.42 133.321 73.641C133.274 71.8621 133.931 70.1364 135.149 68.839C135.636 68.3248 136.221 67.9145 136.871 67.6326C137.52 67.3508 138.22 67.2033 138.928 67.199C139.579 67.1868 140.225 67.3215 140.817 67.593L141.017 67.693C141.46 67.4093 141.977 67.2609 142.503 67.266C142.879 67.264 143.252 67.3367 143.6 67.4797C143.948 67.6228 144.264 67.8335 144.53 68.0995C144.796 68.3656 145.007 68.6818 145.15 69.0298C145.293 69.3778 145.366 69.7507 145.364 70.127V76.59C145.373 77.3394 145.119 78.0684 144.648 78.651C144.387 78.9722 144.056 79.23 143.681 79.4051C143.306 79.5802 142.896 79.668 142.482 79.662C141.957 79.6674 141.442 79.5201 140.999 79.238L140.909 79.286C140.315 79.5807 139.658 79.7282 138.995 79.716L138.991 79.714ZM139.22 74.235C139.328 74.235 139.358 74.214 139.37 74.205C139.446 74.1495 139.505 74.0745 139.542 73.988C139.607 73.8466 139.641 73.6928 139.642 73.537C139.66 73.2475 139.59 72.9593 139.442 72.71C139.371 72.684 139.295 72.6737 139.219 72.68H139.201L139.186 72.701C139.046 72.9071 138.973 73.1517 138.978 73.401C138.967 73.6908 139.036 73.978 139.178 74.231L139.22 74.235Z" fill="#140C07"/>
<path d="M141.211 77.105C140.942 77.4488 140.606 77.7351 140.224 77.947C139.84 78.1326 139.416 78.2225 138.99 78.209C138.028 78.2091 137.101 77.8508 136.39 77.204C135.418 76.2489 134.856 74.9536 134.821 73.5916C134.786 72.2296 135.282 70.9073 136.204 69.904C136.554 69.5293 136.977 69.2297 137.447 69.0234C137.916 68.8171 138.423 68.7084 138.936 68.704C139.361 68.6916 139.783 68.7761 140.17 68.951C140.567 69.1543 140.925 69.425 141.229 69.751C141.317 69.4372 141.516 69.1662 141.789 68.9883C142.062 68.8105 142.391 68.738 142.713 68.7843C143.036 68.8307 143.33 68.9928 143.542 69.2404C143.754 69.488 143.869 69.8041 143.865 70.13V76.593C143.876 76.9955 143.744 77.3888 143.492 77.703C143.372 77.8511 143.219 77.9694 143.045 78.0487C142.872 78.128 142.683 78.166 142.492 78.16C142.191 78.1547 141.9 78.0475 141.667 77.8559C141.435 77.6644 141.274 77.3997 141.211 77.105ZM137.479 73.413C137.465 73.9881 137.616 74.5552 137.915 75.047C138.049 75.2717 138.241 75.4556 138.472 75.5789C138.703 75.7023 138.963 75.7604 139.224 75.747C139.589 75.7599 139.949 75.6547 140.25 75.447C140.544 75.2358 140.774 74.9489 140.918 74.617C141.069 74.2803 141.148 73.9152 141.147 73.546C141.172 72.9438 141.007 72.3491 140.675 71.846C140.509 71.6217 140.289 71.4432 140.036 71.3269C139.782 71.2106 139.503 71.1604 139.225 71.181C138.97 71.1732 138.717 71.2325 138.492 71.3529C138.267 71.4733 138.078 71.6505 137.943 71.867C137.635 72.3232 137.473 72.8625 137.479 73.413Z" fill="white"/>
<path d="M158.437 79.642C157.907 79.6427 157.385 79.5189 156.912 79.2806C156.439 79.0423 156.029 78.6961 155.714 78.27L155.175 77.626L154.624 78.288C154.298 78.7077 153.881 79.0476 153.404 79.2822C152.927 79.5168 152.403 79.6398 151.871 79.642C151.493 79.6386 151.12 79.5493 150.781 79.3809C150.442 79.2126 150.146 78.9694 149.915 78.67C149.483 78.142 149.247 77.481 149.247 76.799C149.242 76.5268 149.286 76.256 149.376 75.999C149.539 75.5302 149.799 75.1014 150.14 74.741L151.54 73.241L150.529 72.141L150.511 72.117C150.165 71.7351 149.912 71.2776 149.774 70.781C149.712 70.553 149.683 70.3173 149.687 70.081C149.684 69.3993 149.921 68.7383 150.355 68.213C150.59 67.9142 150.889 67.6726 151.23 67.5063C151.572 67.34 151.946 67.2534 152.326 67.253C152.821 67.23 153.314 67.3272 153.763 67.5362C154.212 67.7451 154.604 68.0597 154.905 68.453L155.205 68.826L155.505 68.45C155.818 68.0744 156.213 67.7755 156.66 67.5764C157.106 67.3772 157.592 67.283 158.081 67.301C158.598 67.3037 159.101 67.4711 159.516 67.779C159.891 68.0514 160.193 68.4121 160.395 68.829C160.594 69.2335 160.696 69.6784 160.695 70.129C160.695 70.4004 160.654 70.6702 160.572 70.929C160.414 71.4188 160.146 71.8663 159.79 72.238L158.8 73.27L160.187 74.814C160.536 75.191 160.79 75.646 160.927 76.141C160.993 76.3768 161.025 76.6211 161.02 76.866C161.019 77.5379 160.783 78.1883 160.352 78.704C160.122 78.9926 159.831 79.2266 159.5 79.3889C159.169 79.5511 158.806 79.6376 158.437 79.642Z" fill="#140C07"/>
<path d="M156.77 73.227L159.087 75.821C159.284 76.0294 159.426 76.2838 159.499 76.561C159.526 76.6586 159.538 76.7597 159.535 76.861C159.535 77.1844 159.42 77.4973 159.21 77.743C159.12 77.8649 159.003 77.9644 158.869 78.0338C158.734 78.1032 158.585 78.1405 158.434 78.143C158.13 78.141 157.83 78.0666 157.56 77.926C157.29 77.7853 157.058 77.5824 156.882 77.334L155.175 75.259L153.475 77.32C153.289 77.5686 153.049 77.771 152.772 77.9113C152.496 78.0517 152.19 78.1262 151.88 78.129C151.726 78.1253 151.575 78.0862 151.439 78.0147C151.303 77.9433 151.185 77.8414 151.095 77.717C150.878 77.4567 150.76 77.1286 150.761 76.79C150.757 76.6881 150.772 76.5862 150.806 76.49C150.899 76.2132 151.052 75.9604 151.254 75.75L153.598 73.22L151.669 71.114C151.468 70.8981 151.32 70.6386 151.236 70.356C151.209 70.2583 151.198 70.1571 151.203 70.056C151.204 69.727 151.32 69.4087 151.531 69.156C151.625 69.0305 151.746 68.9285 151.886 68.8581C152.026 68.7876 152.18 68.7506 152.337 68.75C152.601 68.7316 152.865 68.7783 153.106 68.8859C153.347 68.9934 153.558 69.1587 153.721 69.367L155.186 71.226L156.686 69.403C156.859 69.2006 157.076 69.041 157.321 68.9369C157.566 68.8327 157.831 68.7869 158.097 68.803C158.296 68.8052 158.49 68.8719 158.648 68.993C158.823 69.1272 158.963 69.3027 159.054 69.504C159.155 69.6983 159.209 69.9139 159.21 70.133C159.21 70.2495 159.192 70.3652 159.156 70.476C159.065 70.7538 158.912 71.007 158.708 71.216L156.77 73.227Z" fill="white"/>
<path d="M164.244 79.66C163.036 79.6945 161.858 79.2834 160.934 78.505C160.384 78.04 159.969 77.4351 159.734 76.754C159.535 76.1276 159.441 75.4729 159.454 74.816V70.197C159.44 69.4577 159.692 68.738 160.164 68.169C160.429 67.8663 160.755 67.6236 161.121 67.4574C161.487 67.2912 161.884 67.2052 162.286 67.2052C162.688 67.2052 163.086 67.2912 163.452 67.4574C163.818 67.6236 164.144 67.8663 164.409 68.169C164.806 68.6505 165.047 69.2413 165.101 69.863C165.151 69.2372 165.396 68.6427 165.801 68.163C166.066 67.8603 166.392 67.6176 166.758 67.4514C167.124 67.2852 167.521 67.1992 167.923 67.1992C168.325 67.1992 168.723 67.2852 169.089 67.4514C169.455 67.6176 169.781 67.8603 170.046 68.163C170.513 68.7314 170.763 69.4466 170.753 70.182V76.537C170.765 77.2423 170.546 77.9323 170.13 78.502C169.886 78.8325 169.569 79.1025 169.204 79.2913C168.838 79.4801 168.435 79.5826 168.024 79.591H167.961C167.418 79.5994 166.885 79.4512 166.424 79.164C166.324 79.215 166.224 79.264 166.124 79.302C165.527 79.5435 164.888 79.6651 164.244 79.66Z" fill="#140C07"/>
<path d="M166.669 77.178C166.344 77.4902 165.967 77.7436 165.556 77.927C165.138 78.0888 164.692 78.1666 164.244 78.156C163.397 78.1864 162.569 77.9037 161.918 77.362C161.572 77.0745 161.311 76.6994 161.16 76.276C161.016 75.8035 160.948 75.3109 160.96 74.817V70.199C160.946 69.8146 161.072 69.4382 161.315 69.14C161.438 69.0056 161.588 68.8984 161.755 68.825C161.923 68.7516 162.103 68.7137 162.285 68.7137C162.468 68.7137 162.648 68.7516 162.815 68.825C162.982 68.8984 163.133 69.0056 163.256 69.14C163.498 69.4377 163.625 69.8124 163.614 70.196V74.207C163.598 74.6422 163.74 75.0685 164.014 75.407C164.152 75.5671 164.325 75.6934 164.519 75.7762C164.714 75.8591 164.925 75.8963 165.136 75.885C165.399 75.8876 165.657 75.8109 165.876 75.665C166.099 75.5205 166.281 75.3202 166.403 75.084C166.528 74.8478 166.594 74.5844 166.593 74.317V70.192C166.579 69.8076 166.705 69.4312 166.948 69.133C167.069 68.9922 167.22 68.8808 167.391 68.8073C167.561 68.7338 167.746 68.7002 167.932 68.709C168.113 68.7031 168.294 68.7385 168.46 68.8125C168.625 68.8865 168.772 68.9971 168.889 69.136C169.131 69.4337 169.258 69.8084 169.247 70.192V76.547C169.257 76.9315 169.141 77.3088 168.916 77.621C168.807 77.7696 168.664 77.8901 168.499 77.9727C168.334 78.0553 168.152 78.0975 167.968 78.096C167.681 78.1063 167.398 78.0221 167.163 77.8563C166.929 77.6904 166.755 77.4521 166.669 77.178Z" fill="white"/>
<path d="M182.351 79.66C182.018 79.6595 181.689 79.5899 181.385 79.4559C181.08 79.3218 180.807 79.1261 180.582 78.881C180.313 78.6037 180.094 78.2807 179.938 77.927C179.739 78.4413 179.389 78.8834 178.935 79.1953C178.48 79.5072 177.942 79.6744 177.39 79.675C176.822 79.6819 176.265 79.5177 175.791 79.2039C175.317 78.89 174.948 78.441 174.733 77.915C174.576 78.2838 174.353 78.6204 174.074 78.908C173.847 79.1501 173.572 79.3431 173.267 79.475C172.963 79.6069 172.634 79.6749 172.302 79.675C171.663 79.6849 171.032 79.5241 170.476 79.209C170.107 79.0025 169.801 78.7004 169.59 78.3345C169.379 77.9686 169.27 77.5525 169.276 77.13C169.277 76.7169 169.328 76.3055 169.429 75.905V75.837L171.429 70.144C171.638 69.4961 171.951 68.8865 172.356 68.339C172.631 67.9896 172.984 67.7091 173.386 67.5195C173.788 67.33 174.229 67.2367 174.673 67.247C175.234 67.2465 175.784 67.4085 176.255 67.7133C176.727 68.0182 177.1 68.4528 177.33 68.965C177.452 68.7386 177.593 68.5232 177.751 68.321C178.032 67.9699 178.391 67.6898 178.799 67.5032C179.208 67.3167 179.655 67.2289 180.104 67.247C180.483 67.2439 180.859 67.319 181.208 67.4677C181.557 67.6163 181.872 67.8353 182.132 68.111C182.559 68.5572 182.88 69.0943 183.071 69.682L185.21 75.835V75.883C185.317 76.2855 185.371 76.7004 185.369 77.117C185.371 77.5395 185.259 77.9546 185.044 78.3181C184.829 78.6817 184.519 78.9799 184.147 79.181C183.601 79.4961 182.982 79.6614 182.351 79.66Z" fill="#140C07"/>
<path d="M174.663 72.884L173.42 77.096C173.343 77.376 173.196 77.6317 172.993 77.839C172.905 77.934 172.797 78.0097 172.678 78.0613C172.559 78.1129 172.431 78.1394 172.301 78.139C171.926 78.1479 171.555 78.0565 171.227 77.874C171.085 77.8016 170.966 77.6902 170.884 77.5528C170.803 77.4154 170.762 77.2577 170.767 77.098C170.766 76.8099 170.803 76.5229 170.875 76.244L172.84 70.63C172.997 70.1405 173.232 69.6793 173.535 69.264C173.668 69.0949 173.841 68.9602 174.037 68.8713C174.233 68.7824 174.448 68.7418 174.663 68.753C175.365 68.753 175.876 69.2233 176.197 70.164L177.334 73.474L178.261 70.619C178.393 70.1237 178.617 69.6574 178.92 69.244C179.062 69.0742 179.243 68.9405 179.447 68.8536C179.65 68.7667 179.872 68.7292 180.093 68.744C180.271 68.7416 180.447 68.7764 180.61 68.8464C180.773 68.9163 180.92 69.0197 181.041 69.15C181.313 69.4344 181.518 69.7761 181.641 70.15L183.756 76.294C183.827 76.5669 183.863 76.8479 183.861 77.13C183.864 77.2874 183.822 77.4424 183.74 77.5767C183.658 77.7111 183.54 77.8191 183.398 77.888C183.077 78.0686 182.713 78.1601 182.345 78.153C182.215 78.151 182.088 78.1219 181.97 78.0674C181.852 78.013 181.747 77.9345 181.662 77.837C181.465 77.6335 181.321 77.3845 181.244 77.112L179.983 72.864L178.683 76.964C178.43 77.754 177.997 78.15 177.383 78.152C177.046 78.1491 176.721 78.0288 176.464 77.812C176.206 77.5951 176.032 77.2953 175.972 76.964L174.663 72.884Z" fill="white"/>
<path d="M188.609 79.659C187.401 79.6926 186.223 79.2816 185.299 78.504C184.749 78.0385 184.335 77.4337 184.099 76.753C183.899 76.1268 183.804 75.4721 183.816 74.815V70.197C183.803 69.4574 184.056 68.7377 184.529 68.169C184.793 67.8663 185.119 67.6238 185.485 67.4576C185.851 67.2913 186.248 67.2054 186.65 67.2054C187.052 67.2054 187.449 67.2913 187.815 67.4576C188.181 67.6238 188.507 67.8663 188.771 68.169C188.632 68.3078 188.537 68.485 188.498 68.6779C188.46 68.8709 188.48 69.0708 188.556 69.2523C188.632 69.4339 188.76 69.5888 188.924 69.6973C189.088 69.8059 189.28 69.8632 189.477 69.8619C189.674 69.8606 189.865 69.8008 190.028 69.6902C190.191 69.5795 190.317 69.423 190.39 69.2405C190.463 69.058 190.481 68.8578 190.44 68.6654C190.399 68.4729 190.302 68.297 190.161 68.16C190.425 67.8573 190.751 67.6148 191.117 67.4485C191.483 67.2823 191.88 67.1964 192.282 67.1964C192.684 67.1964 193.081 67.2823 193.447 67.4485C193.813 67.6148 194.139 67.8573 194.403 68.16C194.871 68.7278 195.121 69.4434 195.11 70.179V76.534C195.123 77.2395 194.904 77.9299 194.487 78.499C194.243 78.8302 193.926 79.1007 193.561 79.2896C193.196 79.4784 192.792 79.5806 192.381 79.588H192.315C191.772 79.5956 191.239 79.4474 190.778 79.161C190.68 79.2123 190.58 79.2584 190.478 79.299C189.885 79.5405 189.25 79.6628 188.609 79.659Z" fill="#140C07"/>
<path d="M191.033 77.178C190.707 77.4902 190.329 77.7436 189.917 77.927C189.5 78.0891 189.055 78.167 188.608 78.156C187.761 78.1863 186.933 77.9036 186.282 77.362C185.937 77.0745 185.675 76.6994 185.524 76.276C185.38 75.8035 185.312 75.3109 185.324 74.817V70.199C185.311 69.8143 185.438 69.438 185.682 69.14C185.806 69.0058 185.956 68.8986 186.123 68.8253C186.29 68.7521 186.47 68.7142 186.652 68.7142C186.835 68.7142 187.015 68.7521 187.182 68.8253C187.349 68.8986 187.499 69.0058 187.623 69.14C187.864 69.4381 187.99 69.8128 187.978 70.196V74.207C187.962 74.6421 188.104 75.0683 188.378 75.407C188.517 75.5671 188.69 75.6934 188.885 75.7763C189.08 75.8591 189.291 75.8963 189.503 75.885C189.766 75.8875 190.024 75.8109 190.243 75.665C190.464 75.5193 190.644 75.3192 190.766 75.084C190.891 74.8478 190.957 74.5844 190.956 74.317V70.192C190.943 69.8073 191.07 69.431 191.314 69.133C191.437 68.9986 191.587 68.8914 191.755 68.818C191.922 68.7446 192.102 68.7068 192.284 68.7068C192.467 68.7068 192.647 68.7446 192.814 68.818C192.982 68.8914 193.132 68.9986 193.255 69.133C193.496 69.4311 193.622 69.8058 193.61 70.189V76.544C193.621 76.9287 193.505 77.3064 193.279 77.618C193.17 77.7669 193.027 77.8877 192.863 77.9704C192.698 78.053 192.515 78.095 192.331 78.093C192.044 78.1024 191.762 78.017 191.528 77.85C191.294 77.683 191.121 77.4437 191.037 77.169L191.033 77.178Z" fill="white"/>
<path d="M198.983 79.66C197.775 79.6945 196.597 79.2834 195.673 78.505C195.123 78.04 194.708 77.4351 194.473 76.754C194.274 76.1276 194.18 75.4729 194.193 74.816V70.197C194.179 69.4577 194.431 68.738 194.903 68.169C195.168 67.8663 195.494 67.6236 195.86 67.4574C196.226 67.2912 196.623 67.2052 197.025 67.2052C197.428 67.2052 197.825 67.2912 198.191 67.4574C198.557 67.6236 198.883 67.8663 199.148 68.169C199.545 68.6505 199.786 69.2413 199.84 69.863C199.89 69.2372 200.135 68.6427 200.54 68.163C200.805 67.8603 201.131 67.6176 201.497 67.4514C201.863 67.2852 202.26 67.1992 202.663 67.1992C203.065 67.1992 203.462 67.2852 203.828 67.4514C204.194 67.6176 204.52 67.8603 204.785 68.163C205.249 68.7322 205.497 69.4475 205.485 70.182V76.537C205.498 77.2425 205.279 77.9329 204.862 78.502C204.618 78.8332 204.301 79.1037 203.936 79.2925C203.571 79.4814 203.167 79.5835 202.756 79.591H202.717C202.173 79.599 201.639 79.4508 201.177 79.164C201.08 79.2153 200.979 79.2614 200.877 79.302C200.276 79.5453 199.632 79.667 198.983 79.66Z" fill="#140C07"/>
<path d="M201.408 77.178C201.087 77.4887 200.715 77.742 200.308 77.927C199.891 78.0891 199.446 78.167 198.999 78.156C198.152 78.1864 197.324 77.9037 196.673 77.362C196.327 77.0745 196.066 76.6994 195.915 76.276C195.771 75.8035 195.703 75.3109 195.715 74.817V70.199C195.701 69.8146 195.827 69.4382 196.07 69.14C196.193 69.0056 196.343 68.8984 196.51 68.825C196.678 68.7516 196.858 68.7137 197.04 68.7137C197.223 68.7137 197.403 68.7516 197.57 68.825C197.738 68.8984 197.888 69.0056 198.011 69.14C198.252 69.4381 198.378 69.8128 198.366 70.196V74.207C198.35 74.6421 198.492 75.0683 198.766 75.407C198.904 75.5671 199.077 75.6934 199.271 75.7762C199.466 75.8591 199.677 75.8963 199.888 75.885C200.151 75.8875 200.409 75.8109 200.628 75.665C200.851 75.5204 201.033 75.3202 201.155 75.084C201.28 74.8477 201.345 74.5843 201.344 74.317V70.192C201.33 69.8076 201.456 69.4312 201.699 69.133C201.82 68.9988 201.968 68.8916 202.133 68.8182C202.298 68.7448 202.477 68.7068 202.657 68.7068C202.838 68.7068 203.017 68.7448 203.182 68.8182C203.347 68.8916 203.495 68.9988 203.616 69.133C203.857 69.4311 203.983 69.8058 203.971 70.189V76.544C203.982 76.9282 203.867 77.3054 203.643 77.618C203.534 77.7664 203.391 77.8868 203.226 77.9694C203.061 78.0519 202.879 78.0943 202.695 78.093C202.41 78.1009 202.131 78.0159 201.898 77.8508C201.666 77.6857 201.494 77.4495 201.408 77.178Z" fill="white"/>
<path d="M112.688 61.868C111.637 61.8393 110.605 61.5823 109.664 61.1146C108.722 60.647 107.894 59.98 107.236 59.16L100.436 51.731V54.758C100.477 56.5172 99.8852 58.2326 98.7689 59.593C98.1602 60.3247 97.3932 60.9086 96.5258 61.3006C95.6585 61.6926 94.7134 61.8825 93.7619 61.856C92.8129 61.8807 91.8704 61.6928 91.0035 61.3059C90.1366 60.919 89.3672 60.3429 88.7519 59.62C87.6142 58.2583 87.0053 56.5321 87.0369 54.758V29.876C87.0041 28.1218 87.6008 26.414 88.7189 25.062C89.3331 24.3266 90.1059 23.7401 90.9794 23.3466C91.8529 22.9531 92.8043 22.7628 93.7619 22.79C94.7168 22.7632 95.6651 22.9551 96.5345 23.351C97.4038 23.7468 98.1712 24.3362 98.7779 25.074C99.8843 26.4311 100.472 28.1374 100.436 29.888V31.058L105.25 25.663C105.882 24.8035 106.701 24.0984 107.645 23.6008C108.588 23.1032 109.633 22.826 110.699 22.79C112.417 22.7727 114.075 23.4193 115.327 24.595C115.971 25.1817 116.484 25.8977 116.833 26.6961C117.182 27.4946 117.359 28.3576 117.352 29.229C117.318 31.2891 116.476 33.2534 115.008 34.699L108.623 41.21L116.394 49.446C117.126 50.1995 117.778 51.0262 118.341 51.913C118.981 53.0002 119.307 54.2436 119.283 55.505C119.307 56.3879 119.139 57.2656 118.791 58.0771C118.442 58.8887 117.921 59.6147 117.264 60.205C115.998 61.3076 114.367 61.9003 112.688 61.868Z" fill="#140C07"/>
<path d="M127.582 61.869C124.29 61.8748 121.114 60.6566 118.67 58.451L118.643 58.424C115.434 55.3226 113.573 51.0842 113.46 46.6228C113.348 42.1615 114.994 37.8348 118.043 34.576C119.253 33.296 120.71 32.2739 122.325 31.5712C123.941 30.8686 125.681 30.4997 127.443 30.487C129.029 30.4549 130.601 30.782 132.043 31.444C132.386 31.611 132.72 31.7969 133.043 32.001C134.161 31.1324 135.538 30.666 136.954 30.677C137.825 30.6718 138.688 30.8395 139.493 31.1703C140.298 31.5011 141.03 31.9884 141.646 32.6041C142.261 33.2198 142.749 33.9515 143.08 34.7569C143.41 35.5623 143.578 36.4253 143.573 37.296V54.527C143.606 56.2961 143.011 58.0197 141.894 59.392C141.294 60.1367 140.532 60.7337 139.665 61.137C138.798 61.5403 137.85 61.739 136.894 61.718C135.479 61.739 134.101 61.269 132.994 60.388C132.741 60.55 132.489 60.688 132.233 60.83C130.788 61.5427 129.193 61.8989 127.582 61.869ZM128.182 43.112C127.995 43.0921 127.807 43.1292 127.642 43.2184C127.477 43.3077 127.343 43.4449 127.258 43.612C126.773 44.3298 126.521 45.1797 126.536 46.046C126.503 47.0186 126.749 47.9802 127.246 48.817C127.42 49.097 127.568 49.268 128.182 49.268C128.531 49.2914 128.878 49.1959 129.166 48.997C129.512 48.7472 129.785 48.4082 129.954 48.016C130.185 47.5077 130.302 46.9552 130.297 46.397C130.354 45.4195 130.11 44.4481 129.597 43.614C129.489 43.449 129.248 43.109 128.197 43.109L128.182 43.112Z" fill="#140C07"/>
<path d="M114.795 63.072C113.744 63.0434 112.712 62.7863 111.771 62.3187C110.829 61.851 110.001 61.184 109.343 60.364L102.543 52.935V55.962C102.584 57.7212 101.992 59.4367 100.876 60.797C100.267 61.5287 99.5002 62.1126 98.6329 62.5046C97.7655 62.8967 96.8205 63.0866 95.869 63.06C94.92 63.0848 93.9774 62.8969 93.1105 62.51C92.2436 62.1231 91.4742 61.547 90.859 60.824C89.7212 59.4623 89.1124 57.7362 89.144 55.962V31.08C89.1111 29.3259 89.7079 27.618 90.826 26.266C91.4402 25.5307 92.213 24.9443 93.0865 24.5507C93.96 24.1572 94.9113 23.9669 95.869 23.994C96.8239 23.9672 97.7722 24.1591 98.6415 24.555C99.5109 24.9508 100.278 25.5402 100.885 26.278C101.991 27.6351 102.579 29.3414 102.543 31.092V32.262L107.357 26.867C107.989 26.0075 108.808 25.3025 109.752 24.8049C110.695 24.3072 111.74 24.03 112.806 23.994C114.524 23.9767 116.182 24.6234 117.434 25.799C118.078 26.3857 118.592 27.1017 118.94 27.9001C119.289 28.6986 119.466 29.5617 119.459 30.433C119.425 32.4931 118.583 34.4574 117.115 35.903L110.73 42.414L118.501 50.65C119.233 51.4035 119.885 52.2302 120.448 53.117C121.088 54.2042 121.414 55.4476 121.39 56.709C121.414 57.5919 121.246 58.4696 120.898 59.2811C120.549 60.0927 120.028 60.8187 119.371 61.409C118.104 62.5109 116.474 63.1029 114.795 63.07V63.072Z" fill="#140C07"/>
<path d="M129.688 63.072C126.396 63.0778 123.22 61.8596 120.776 59.654L120.749 59.627C117.54 56.5256 115.679 52.2872 115.567 47.8258C115.454 43.3645 117.1 39.0378 120.149 35.779C121.359 34.499 122.816 33.4769 124.431 32.7742C126.047 32.0716 127.787 31.7027 129.549 31.69C131.135 31.6579 132.708 31.985 134.149 32.647C134.492 32.814 134.826 32.9999 135.149 33.204C136.267 32.3359 137.645 31.8695 139.06 31.88C139.931 31.8748 140.794 32.0425 141.599 32.3733C142.404 32.7041 143.136 33.1915 143.752 33.8071C144.368 34.4228 144.855 35.1545 145.186 35.9599C145.517 36.7653 145.684 37.6283 145.679 38.499V55.73C145.712 57.4991 145.117 59.2227 144 60.595C143.4 61.3397 142.638 61.9367 141.771 62.34C140.904 62.7433 139.956 62.9421 139 62.921C137.585 62.942 136.207 62.472 135.1 61.591C134.847 61.753 134.595 61.891 134.339 62.033C132.894 62.7457 131.299 63.102 129.688 63.072ZM130.288 44.315C130.101 44.2951 129.913 44.3322 129.748 44.4215C129.583 44.5107 129.449 44.6479 129.364 44.815C128.879 45.5328 128.627 46.3827 128.642 47.249C128.609 48.2216 128.855 49.1832 129.352 50.02C129.527 50.3 129.674 50.471 130.288 50.471C130.637 50.4944 130.984 50.3989 131.272 50.2C131.618 49.9502 131.891 49.6112 132.06 49.219C132.291 48.7107 132.408 48.1582 132.403 47.6C132.46 46.6225 132.216 45.6511 131.703 44.817C131.595 44.652 131.354 44.312 130.303 44.312L130.288 44.315Z" fill="#140C07"/>
<path d="M152.383 62.931C151.452 62.9544 150.528 62.7685 149.679 62.3868C148.829 62.0052 148.077 61.4376 147.476 60.726C146.366 59.3901 145.772 57.6998 145.803 55.963V44.385C144.38 44.1785 143.082 43.4576 142.155 42.3587C141.228 41.2598 140.736 39.8593 140.772 38.422C140.78 37.3477 141.063 36.2933 141.593 35.359C142.14 34.329 142.995 33.4957 144.039 32.976C145.331 32.4028 146.74 32.1421 148.152 32.215H156.333C158.253 32.0777 160.16 32.622 161.719 33.752C162.383 34.3339 162.915 35.051 163.28 35.8553C163.645 36.6595 163.833 37.5324 163.833 38.4155C163.833 39.2986 163.645 40.1714 163.28 40.9757C162.915 41.78 162.383 42.4971 161.719 43.079C160.898 43.7406 159.925 44.1874 158.888 44.379V55.963C158.934 57.6993 158.349 59.3934 157.242 60.732C156.649 61.4398 155.904 62.0049 155.063 62.3856C154.222 62.7663 153.306 62.9527 152.383 62.931Z" fill="#140C07"/>
<path d="M171.744 63.072C168.453 63.0798 165.276 61.8612 162.835 59.654L162.805 59.627C159.596 56.5256 157.735 52.2872 157.622 47.8258C157.51 43.3645 159.156 39.0378 162.205 35.779C163.415 34.499 164.872 33.477 166.487 32.7743C168.103 32.0716 169.843 31.7028 171.605 31.69C173.191 31.6579 174.763 31.985 176.205 32.647C176.548 32.8147 176.882 33.0006 177.205 33.204C178.322 32.3347 179.7 31.8681 181.116 31.88C181.987 31.8748 182.85 32.0425 183.655 32.3733C184.46 32.7041 185.192 33.1915 185.808 33.8071C186.423 34.4228 186.911 35.1545 187.242 35.9599C187.572 36.7653 187.74 37.6283 187.735 38.499V55.73C187.769 57.4993 187.174 59.2234 186.056 60.595C185.456 61.3397 184.694 61.9367 183.827 62.34C182.96 62.7433 182.012 62.9421 181.056 62.921C179.638 62.9441 178.255 62.474 177.145 61.591C176.892 61.753 176.64 61.891 176.384 62.033C174.942 62.744 173.351 63.1002 171.744 63.072ZM172.344 44.315C172.156 44.2963 171.967 44.3355 171.801 44.4273C171.636 44.5192 171.503 44.6594 171.42 44.829C170.936 45.5474 170.684 46.3969 170.698 47.263C170.665 48.2356 170.911 49.1973 171.408 50.034C171.582 50.314 171.733 50.485 172.344 50.485C172.693 50.5083 173.04 50.4128 173.328 50.214C173.674 49.9629 173.947 49.6229 174.116 49.23C174.347 48.7228 174.464 48.1712 174.459 47.614C174.515 46.6356 174.271 45.6634 173.759 44.828C173.654 44.653 173.41 44.313 172.359 44.313L172.344 44.315Z" fill="#140C07"/>
<path d="M204.667 62.931C203.919 62.9306 203.179 62.78 202.49 62.4879C201.802 62.1959 201.179 61.7685 200.659 61.231C199.78 60.3539 199.12 59.2819 198.733 58.102L197.743 55.171L196.777 58.059C196.364 59.2967 195.649 60.4115 194.695 61.302C193.624 62.3403 192.193 62.9246 190.702 62.933C189.119 62.9537 187.566 62.5055 186.237 61.645C185.434 61.1411 184.775 60.439 184.322 59.6064C183.869 58.7738 183.639 57.8386 183.652 56.891C183.69 55.4836 183.974 54.0936 184.491 52.784L184.527 52.684L190.587 37.684C191.091 36.2696 191.858 34.9631 192.847 33.833C193.474 33.1778 194.235 32.6647 195.077 32.3283C195.919 31.9919 196.824 31.8401 197.73 31.883C199.559 31.883 202.881 32.572 204.63 37.183L211.177 53.575C211.555 54.6369 211.739 55.758 211.722 56.885C211.735 57.8325 211.504 58.7675 211.051 59.6C210.598 60.4325 209.939 61.1347 209.137 61.639C207.807 62.5003 206.253 62.9495 204.669 62.93L204.667 62.931Z" fill="#140C07"/>
<path d="M219.374 62.93C216.396 63.0159 213.49 62.0053 211.208 60.09C209.872 58.9687 208.865 57.5071 208.292 55.86C207.799 54.2925 207.563 52.6558 207.592 51.013V38.698C207.559 36.9624 208.149 35.2724 209.256 33.935C209.859 33.2232 210.614 32.656 211.465 32.2752C212.317 31.8944 213.243 31.7098 214.175 31.735C215.1 31.7141 216.018 31.903 216.859 32.2874C217.701 32.6719 218.444 33.2421 219.034 33.955C220.129 35.2891 220.714 36.9685 220.686 38.694V49.387C220.647 49.8379 220.779 50.2868 221.056 50.645C221.116 50.714 221.225 50.845 221.745 50.845C221.859 50.8508 221.971 50.818 222.064 50.752C222.23 50.6436 222.364 50.4931 222.452 50.316C222.561 50.1178 222.617 49.895 222.615 49.669V38.698C222.582 36.9629 223.171 35.2734 224.276 33.935C224.879 33.2232 225.634 32.656 226.485 32.2752C227.337 31.8944 228.263 31.7098 229.195 31.735C230.12 31.7139 231.038 31.9026 231.879 32.2871C232.721 32.6716 233.464 33.2419 234.054 33.955C235.149 35.2891 235.734 36.9685 235.706 38.694V55.639C235.736 57.3076 235.222 58.9406 234.241 60.291C233.685 61.0495 232.961 61.6691 232.126 62.1013C231.291 62.5334 230.367 62.7664 229.427 62.782H229.298C227.849 62.8065 226.433 62.3434 225.278 61.467C224.875 61.6991 224.458 61.9052 224.029 62.084C222.548 62.6707 220.966 62.9582 219.374 62.93Z" fill="#140C07"/>
<path d="M245.947 63.424C243.266 63.4828 240.61 62.8902 238.208 61.697L238.157 61.667C236.736 60.8936 235.462 59.8749 234.396 58.658C233.217 57.3864 232.489 55.7628 232.323 54.037V53.799C232.325 53.0088 232.505 52.2292 232.848 51.5175C233.191 50.8057 233.689 50.1799 234.306 49.686C235.466 48.7017 236.943 48.1691 238.464 48.186C238.765 48.1857 239.065 48.2027 239.364 48.237C239.254 47.8053 239.2 47.3614 239.201 46.916C239.201 46.6148 239.223 46.3139 239.267 46.016H239.116C237.653 46.0307 236.233 45.5181 235.116 44.572C234.524 44.0936 234.045 43.4902 233.713 42.8052C233.381 42.1201 233.205 41.3702 233.196 40.609C233.206 39.0032 233.803 37.4565 234.875 36.261C235.804 35.2114 236.928 34.3522 238.185 33.731C240.575 32.5429 243.201 31.9056 245.869 31.866C248.65 31.8005 251.389 32.547 253.752 34.014L253.824 34.062C254.988 34.8472 255.97 35.8733 256.703 37.071C257.468 38.3019 257.876 39.7216 257.879 41.171C257.922 42.8026 257.479 44.4101 256.606 45.789L256.525 45.909C256.863 46.204 257.18 46.5228 257.473 46.863L257.506 46.899C258.835 48.443 259.561 50.4157 259.549 52.453C259.553 54.1056 259.127 55.7308 258.313 57.169C257.525 58.5529 256.444 59.7476 255.145 60.669C253.842 61.5971 252.391 62.2971 250.854 62.739C249.26 63.2017 247.607 63.4328 245.947 63.425V63.424Z" fill="#140C07"/>
<path d="M269.093 63.072C265.801 63.0779 262.625 61.8596 260.181 59.654L260.154 59.627C256.945 56.5256 255.084 52.2872 254.971 47.8259C254.859 43.3645 256.505 39.0379 259.554 35.779C260.764 34.4991 262.221 33.477 263.836 32.7743C265.452 32.0717 267.192 31.7028 268.954 31.69C270.54 31.6585 272.112 31.9857 273.554 32.647C273.897 32.8147 274.231 33.0006 274.554 33.204C275.671 32.335 277.049 31.8685 278.465 31.88C279.336 31.8748 280.199 32.0425 281.004 32.3733C281.809 32.7041 282.541 33.1915 283.157 33.8071C283.773 34.4228 284.26 35.1545 284.591 35.9599C284.921 36.7653 285.089 37.6283 285.084 38.499V55.73C285.117 57.4992 284.522 59.2228 283.405 60.595C282.805 61.3395 282.042 61.9364 281.176 62.3397C280.309 62.743 279.361 62.9418 278.405 62.921C276.987 62.9446 275.604 62.4744 274.494 61.591C274.241 61.753 273.989 61.891 273.733 62.033C272.291 62.744 270.7 63.1002 269.093 63.072ZM269.693 44.315C269.506 44.2951 269.318 44.3322 269.153 44.4215C268.988 44.5107 268.854 44.648 268.769 44.815C268.284 45.5328 268.032 46.3827 268.047 47.249C268.014 48.2211 268.26 49.1823 268.754 50.02C268.928 50.3 269.079 50.471 269.693 50.471C270.042 50.4944 270.389 50.3988 270.677 50.2C271.023 49.9489 271.296 49.6089 271.465 49.216C271.694 48.7084 271.811 48.1571 271.808 47.6C271.865 46.6217 271.62 45.6494 271.108 44.814C271.015 44.652 270.759 44.314 269.708 44.314L269.693 44.315Z" fill="#140C07"/>
<path d="M291.789 62.931C290.858 62.9544 289.934 62.7685 289.085 62.3868C288.235 62.0052 287.483 61.4376 286.882 60.726C285.771 59.3904 285.177 57.6999 285.209 55.963V44.385C283.786 44.1785 282.488 43.4576 281.561 42.3587C280.634 41.2598 280.142 39.8593 280.178 38.422C280.186 37.3477 280.469 36.2933 280.999 35.359C281.547 34.3297 282.402 33.4967 283.445 32.976C284.737 32.4025 286.146 32.1418 287.558 32.215H295.739C297.659 32.0777 299.566 32.622 301.125 33.752C301.789 34.3339 302.322 35.051 302.686 35.8553C303.051 36.6595 303.239 37.5324 303.239 38.4155C303.239 39.2986 303.051 40.1714 302.686 40.9757C302.322 41.78 301.789 42.4971 301.125 43.079C300.304 43.7401 299.331 44.1868 298.294 44.379V55.963C298.34 57.6993 297.755 59.3934 296.648 60.732C296.055 61.4398 295.31 62.0049 294.469 62.3856C293.628 62.7663 292.712 62.9527 291.789 62.931Z" fill="#140C07"/>
<path d="M311.97 63.072C309.915 63.0646 307.884 62.6333 306.004 61.8049C304.123 60.9766 302.434 59.7691 301.042 58.258C298.348 55.3082 296.921 51.4182 297.067 47.426C297.063 45.4537 297.383 43.4942 298.015 41.626C298.649 39.7241 299.684 37.98 301.048 36.511C302.432 35.0141 304.105 33.8145 305.967 32.985C307.838 32.1372 309.867 31.6981 311.921 31.697C313.965 31.7039 315.986 32.1396 317.851 32.976C319.736 33.7984 321.423 35.0139 322.8 36.541C324.143 38.0064 325.162 39.7393 325.788 41.626C326.407 43.4968 326.718 45.4556 326.709 47.426C326.713 49.3692 326.401 51.3001 325.785 53.143C324.794 56.0254 322.933 58.5289 320.458 60.3076C317.983 62.0862 315.017 63.0522 311.969 63.072H311.97ZM311.759 44.315C311.566 44.2976 311.372 44.34 311.203 44.4364C311.035 44.5327 310.9 44.6785 310.817 44.854C310.314 45.6129 310.051 46.5064 310.065 47.417C310.067 48.022 310.184 48.6211 310.408 49.183C310.556 49.604 310.812 49.9786 311.151 50.269C311.317 50.4119 311.533 50.4837 311.751 50.469C312.042 50.491 312.33 50.404 312.56 50.225C312.928 49.9281 313.213 49.5417 313.388 49.103C313.624 48.5703 313.747 47.9945 313.749 47.412C313.747 46.8091 313.624 46.2126 313.388 45.658C313.226 45.2258 312.949 44.8456 312.588 44.558C312.352 44.3776 312.058 44.291 311.762 44.315H311.759Z" fill="#140C07"/>
<path d="M329.215 72.568C328.283 72.5906 327.358 72.4005 326.51 72.012C325.662 71.6235 324.914 71.0469 324.323 70.326C323.238 68.9963 322.656 67.3269 322.68 65.611V39.074C322.643 37.4009 323.129 35.758 324.07 34.374C324.631 33.5811 325.379 32.9395 326.249 32.5064C327.118 32.0733 328.081 31.8622 329.052 31.892C330.507 31.8477 331.929 32.3271 333.06 33.243C334.65 32.2541 336.487 31.7342 338.36 31.743C341.757 31.6615 345.048 32.9318 347.51 35.275L347.537 35.302C349.083 36.8161 350.293 38.639 351.087 40.652C351.88 42.6325 352.288 44.7465 352.287 46.88C352.3 49.4862 351.79 52.0686 350.787 54.474C349.789 56.9103 348.149 59.0305 346.042 60.609C343.805 62.2599 341.086 63.127 338.306 63.076C337.45 63.0769 336.598 62.9762 335.766 62.776V65.616C335.807 67.3428 335.226 69.0269 334.129 70.361C333.529 71.0754 332.776 71.645 331.925 72.0272C331.074 72.4093 330.147 72.5942 329.215 72.568ZM337.585 44.316C337.251 44.2903 336.918 44.383 336.646 44.578C336.305 44.8394 336.044 45.1905 335.891 45.592C335.654 46.1715 335.535 46.7921 335.539 47.418C335.535 48.0371 335.655 48.6507 335.891 49.223C336.047 49.6344 336.313 49.9947 336.661 50.264C336.928 50.4586 337.256 50.5515 337.585 50.526C337.673 50.5316 337.762 50.5183 337.845 50.4871C337.928 50.4559 338.003 50.4075 338.066 50.345C338.416 50.0302 338.683 49.6333 338.842 49.19C339.064 48.6275 339.179 48.0286 339.182 47.424C339.178 46.8121 339.06 46.2063 338.836 45.637C338.684 45.2012 338.424 44.811 338.081 44.503C338.016 44.4388 337.939 44.389 337.853 44.3568C337.768 44.3246 337.677 44.3107 337.586 44.316H337.585Z" fill="#140C07"/>
<path d="M97.43 43.982V54.759C97.4648 55.8155 97.1187 56.8493 96.455 57.672C96.1273 58.0617 95.714 58.3706 95.2475 58.5745C94.7809 58.7785 94.2736 58.8721 93.765 58.848C93.254 58.8699 92.7447 58.7754 92.2756 58.5717C91.8065 58.368 91.3898 58.0603 91.057 57.672C90.3793 56.856 90.0236 55.8202 90.057 54.76V29.876C90.0287 28.8224 90.3788 27.7936 91.044 26.976C91.3772 26.5821 91.7968 26.2703 92.2701 26.0647C92.7433 25.8592 93.2576 25.7656 93.773 25.791C94.2825 25.7663 94.7908 25.8606 95.2577 26.0662C95.7246 26.2719 96.1372 26.5834 96.463 26.976C97.1219 27.7963 97.4675 28.8242 97.438 29.876V38.926L107.548 27.619C107.906 27.0957 108.376 26.6594 108.925 26.3423C109.474 26.0252 110.087 25.8354 110.719 25.787C111.676 25.7689 112.601 26.1281 113.295 26.787C113.637 27.0925 113.909 27.4679 114.094 27.8878C114.278 28.3078 114.37 28.7624 114.363 29.221C114.319 30.512 113.771 31.7345 112.837 32.627L104.458 41.16L114.212 51.504C114.799 52.1034 115.323 52.7607 115.777 53.466C116.13 54.0844 116.305 54.7884 116.282 55.5C116.304 55.9594 116.224 56.418 116.047 56.8425C115.87 57.2671 115.601 57.6471 115.259 57.955C114.546 58.5687 113.626 58.8902 112.686 58.855C112.058 58.8159 111.445 58.6426 110.889 58.3467C110.333 58.0509 109.847 57.6394 109.464 57.14L97.43 43.982Z" fill="white"/>
<path d="M150.277 61.727C149.346 61.7505 148.422 61.5645 147.573 61.1828C146.723 60.8012 145.971 60.2336 145.37 59.522C144.26 58.1861 143.666 56.4959 143.697 54.759V43.181C142.274 42.9745 140.976 42.2536 140.049 41.1547C139.122 40.0559 138.63 38.6553 138.666 37.218C138.674 36.1437 138.957 35.0893 139.487 34.155C140.034 33.125 140.889 32.2918 141.933 31.772C143.225 31.1988 144.634 30.9381 146.046 31.011H154.227C156.147 30.8737 158.054 31.418 159.613 32.548C160.277 33.1299 160.81 33.847 161.174 34.6513C161.539 35.4555 161.727 36.3284 161.727 37.2115C161.727 38.0946 161.539 38.9675 161.174 39.7717C160.81 40.576 160.277 41.2931 159.613 41.875C158.792 42.5366 157.819 42.9834 156.782 43.175V54.759C156.828 56.4953 156.243 58.1895 155.136 59.528C154.543 60.2358 153.798 60.801 152.957 61.1816C152.116 61.5623 151.2 61.7487 150.277 61.727Z" fill="#140C07"/>
<path d="M133.51 55.923C132.79 56.8391 131.896 57.6034 130.879 58.172C129.854 58.6622 128.726 58.8995 127.59 58.864C125.025 58.8668 122.551 57.9105 120.655 56.183C118.065 53.6363 116.566 50.1831 116.474 46.5522C116.382 42.9212 117.705 39.3966 120.162 36.722C121.095 35.7189 122.222 34.916 123.474 34.3621C124.727 33.8082 126.079 33.5149 127.449 33.5C128.582 33.4689 129.707 33.6941 130.741 34.159C131.795 34.7073 132.748 35.4306 133.56 36.298C134.282 34.5587 135.418 33.689 136.969 33.689C137.445 33.6841 137.916 33.7741 138.357 33.9538C138.797 34.1335 139.197 34.3993 139.533 34.7356C139.87 35.0719 140.135 35.472 140.315 35.9123C140.495 36.3526 140.585 36.8244 140.58 37.3V54.531C140.608 55.6053 140.254 56.6547 139.58 57.492C139.261 57.8897 138.854 58.2073 138.39 58.4195C137.927 58.6317 137.42 58.7326 136.911 58.714C135.299 58.7167 134.165 57.7863 133.51 55.923ZM123.545 46.048C123.511 47.5824 123.914 49.0949 124.709 50.408C125.066 51.0077 125.579 51.4988 126.194 51.8285C126.809 52.1582 127.502 52.3139 128.199 52.279C129.178 52.3005 130.137 52.0075 130.937 51.443C131.713 50.886 132.325 50.1321 132.712 49.259C133.114 48.3602 133.319 47.3856 133.312 46.401C133.379 44.8016 132.939 43.222 132.054 41.888C131.609 41.2933 131.022 40.8194 130.346 40.5094C129.671 40.1994 128.929 40.0631 128.188 40.113C127.511 40.096 126.841 40.255 126.244 40.5746C125.647 40.8942 125.143 41.3633 124.782 41.936C123.958 43.1484 123.522 44.583 123.533 46.049L123.545 46.048Z" fill="white"/>
<path d="M169.638 61.869C166.347 61.8767 163.171 60.6581 160.729 58.451L160.699 58.424C157.49 55.3226 155.629 51.0842 155.516 46.6228C155.404 42.1615 157.05 37.8348 160.099 34.576C161.309 33.296 162.766 32.2739 164.381 31.5712C165.997 30.8686 167.737 30.4997 169.499 30.487C171.085 30.4549 172.658 30.782 174.099 31.444C174.442 31.6117 174.776 31.7976 175.099 32.001C176.216 31.1317 177.594 30.6651 179.01 30.677C179.881 30.6718 180.744 30.8395 181.549 31.1703C182.354 31.5011 183.086 31.9884 183.702 32.6041C184.318 33.2198 184.805 33.9515 185.136 34.7569C185.466 35.5623 185.634 36.4253 185.629 37.296V54.527C185.663 56.2963 185.068 58.0204 183.95 59.392C183.35 60.1367 182.588 60.7337 181.721 61.137C180.854 61.5403 179.906 61.739 178.95 61.718C177.532 61.7411 176.149 61.271 175.039 60.388C174.786 60.55 174.534 60.688 174.278 60.83C172.836 61.541 171.245 61.8972 169.638 61.869ZM170.238 43.112C170.05 43.0933 169.861 43.1325 169.696 43.2243C169.53 43.3162 169.397 43.4564 169.314 43.626C168.83 44.3445 168.578 45.1939 168.592 46.06C168.559 47.0325 168.805 47.9942 169.302 48.831C169.476 49.111 169.627 49.282 170.238 49.282C170.587 49.3054 170.934 49.2099 171.222 49.011C171.568 48.7599 171.841 48.4199 172.01 48.027C172.241 47.5198 172.358 46.9682 172.353 46.411C172.41 45.4326 172.165 44.4604 171.653 43.625C171.548 43.451 171.304 43.111 170.253 43.111L170.238 43.112Z" fill="#140C07"/>
<path d="M153.78 40.431V54.763C153.82 55.7892 153.486 56.795 152.841 57.594C152.528 57.9638 152.134 58.2568 151.689 58.4503C151.245 58.6438 150.762 58.7326 150.278 58.71C149.785 58.7313 149.294 58.6397 148.841 58.4421C148.389 58.2446 147.988 57.9463 147.669 57.57C147.018 56.7821 146.676 55.7845 146.706 54.763V40.431C144.499 40.431 143.095 40.079 142.494 39.375C141.95 38.7879 141.656 38.0122 141.673 37.212C141.681 36.6461 141.834 36.0918 142.118 35.602C142.369 35.1076 142.773 34.7076 143.27 34.462C144.15 34.1079 145.097 33.9549 146.044 34.014H154.225C155.443 33.9018 156.663 34.2003 157.691 34.862C158.031 35.1481 158.301 35.5092 158.478 35.9169C158.656 36.3246 158.737 36.7679 158.714 37.212C158.733 37.6568 158.649 38.0999 158.47 38.5073C158.29 38.9146 158.02 39.2755 157.679 39.562C156.996 40.1433 155.696 40.433 153.78 40.431Z" fill="white"/>
<path d="M202.561 61.727C201.813 61.7266 201.073 61.576 200.384 61.2839C199.696 60.9919 199.073 60.5644 198.553 60.027C197.674 59.1499 197.014 58.0779 196.627 56.898L195.637 53.967L194.671 56.855C194.258 58.0927 193.543 59.2075 192.589 60.098C191.518 61.1363 190.088 61.7206 188.596 61.729C187.013 61.7496 185.46 61.3015 184.131 60.441C183.328 59.9371 182.669 59.235 182.216 58.4024C181.763 57.5698 181.533 56.6346 181.546 55.687C181.584 54.2795 181.868 52.8896 182.385 51.58L182.421 51.48L188.481 36.48C188.985 35.0656 189.752 33.7591 190.741 32.629C191.368 31.9738 192.129 31.4607 192.971 31.1243C193.813 30.7879 194.718 30.6361 195.624 30.679C197.453 30.679 200.775 31.368 202.524 35.979L209.071 52.371C209.448 53.433 209.633 54.554 209.615 55.681C209.628 56.6284 209.397 57.5633 208.945 58.3958C208.492 59.2283 207.833 59.9305 207.031 60.435C205.701 61.297 204.146 61.7465 202.561 61.727Z" fill="#140C07"/>
<path d="M175.563 55.923C174.841 56.8379 173.947 57.6021 172.93 58.172C171.904 58.6619 170.775 58.8991 169.638 58.864C167.071 58.8677 164.595 57.9114 162.697 56.183C160.106 53.637 158.606 50.1837 158.514 46.5524C158.422 42.9211 159.745 39.3961 162.203 36.722C163.136 35.7193 164.263 34.9167 165.516 34.3628C166.768 33.8089 168.12 33.5154 169.49 33.5C170.623 33.4688 171.748 33.6941 172.782 34.159C173.836 34.7072 174.789 35.4305 175.601 36.298C176.323 34.5587 177.459 33.689 179.01 33.689C179.486 33.6842 179.957 33.7743 180.397 33.9541C180.838 34.1338 181.238 34.3997 181.574 34.7359C181.91 35.0722 182.176 35.4722 182.355 35.9125C182.535 36.3528 182.625 36.8245 182.62 37.3V54.531C182.659 55.6045 182.316 56.657 181.651 57.501C181.332 57.8987 180.925 58.2164 180.461 58.4286C179.998 58.6408 179.491 58.7416 178.982 58.723C177.353 58.7196 176.213 57.7863 175.563 55.923ZM165.595 46.048C165.561 47.5824 165.964 49.0948 166.759 50.408C167.116 51.0074 167.629 51.4983 168.244 51.8279C168.859 52.1575 169.552 52.3135 170.249 52.279C171.228 52.3005 172.187 52.0075 172.987 51.443C173.763 50.886 174.375 50.132 174.762 49.259C175.164 48.3602 175.369 47.3856 175.362 46.401C175.429 44.8016 174.989 43.222 174.104 41.888C173.659 41.2933 173.072 40.8194 172.396 40.5093C171.721 40.1993 170.979 40.0631 170.238 40.113C169.558 40.0944 168.884 40.2536 168.284 40.5749C167.684 40.8962 167.179 41.3684 166.817 41.945C166.004 43.1577 165.578 44.5882 165.595 46.048Z" fill="white"/>
<path d="M217.268 61.727C214.29 61.8129 211.384 60.8023 209.102 58.887C207.767 57.7656 206.76 56.304 206.187 54.657C205.694 53.0895 205.458 51.4528 205.487 49.81V37.495C205.454 35.7594 206.044 34.0695 207.151 32.732C207.754 32.0202 208.509 31.453 209.36 31.0722C210.212 30.6914 211.138 30.5068 212.07 30.532C212.995 30.5111 213.913 30.7 214.754 31.0844C215.596 31.4689 216.339 32.0391 216.929 32.752C218.024 34.0861 218.609 35.7655 218.581 37.491V48.184C218.542 48.6349 218.674 49.0838 218.951 49.442C219.011 49.511 219.12 49.642 219.64 49.642C219.754 49.6478 219.866 49.615 219.959 49.549C220.125 49.4406 220.259 49.2901 220.347 49.113C220.455 48.9147 220.511 48.692 220.509 48.466V37.495C220.476 35.7599 221.065 34.0704 222.17 32.732C222.773 32.0202 223.528 31.453 224.379 31.0722C225.231 30.6914 226.157 30.5068 227.089 30.532C228.014 30.5109 228.932 30.6996 229.773 31.0841C230.615 31.4686 231.358 32.0389 231.948 32.752C233.043 34.0861 233.628 35.7655 233.6 37.491V54.436C233.63 56.1046 233.116 57.7377 232.135 59.088C231.579 59.8465 230.855 60.4661 230.02 60.8983C229.185 61.3304 228.261 61.5634 227.321 61.579H227.192C225.743 61.6035 224.327 61.1404 223.172 60.264C222.769 60.4961 222.352 60.7022 221.923 60.881C220.441 61.4667 218.858 61.7529 217.265 61.723L217.268 61.727Z" fill="#140C07"/>
<path d="M195.625 44.525L191.819 55.904C191.565 56.6673 191.125 57.3549 190.537 57.904C190.022 58.4213 189.326 58.716 188.596 58.725C187.598 58.7436 186.617 58.4651 185.777 57.925C185.394 57.6939 185.078 57.3652 184.863 56.9723C184.649 56.5794 184.542 56.1365 184.555 55.689C184.598 54.6333 184.82 53.5926 185.211 52.611L191.28 37.582C191.654 36.5166 192.22 35.5287 192.95 34.667C193.3 34.3209 193.72 34.0537 194.182 33.8835C194.644 33.7132 195.137 33.6439 195.628 33.68C197.509 33.68 198.873 34.8083 199.72 37.065L206.255 53.424C206.505 54.1494 206.625 54.9137 206.607 55.681C206.619 56.1284 206.512 56.5711 206.298 56.9638C206.083 57.3566 205.768 57.6855 205.385 57.917C204.544 58.4573 203.562 58.7357 202.563 58.717C202.21 58.7155 201.861 58.6418 201.538 58.5007C201.214 58.3595 200.923 58.1537 200.682 57.896C200.134 57.3487 199.722 56.6795 199.482 55.943L195.625 44.525Z" fill="white"/>
<path d="M243.841 62.22C241.16 62.2787 238.504 61.6861 236.102 60.493L236.051 60.463C234.63 59.6896 233.356 58.6709 232.29 57.454C231.111 56.1823 230.383 54.5588 230.217 52.833V52.595C230.219 51.8048 230.399 51.0252 230.742 50.3135C231.085 49.6017 231.583 48.9759 232.2 48.482C233.36 47.4977 234.837 46.9651 236.358 46.982C236.659 46.9817 236.959 46.9987 237.258 47.033C237.148 46.6013 237.094 46.1574 237.095 45.712C237.094 45.4108 237.116 45.1099 237.161 44.812H237.011C235.547 44.8267 234.128 44.3141 233.011 43.368C232.419 42.8896 231.94 42.2862 231.608 41.6012C231.276 40.9161 231.099 40.1662 231.091 39.405C231.1 37.7992 231.698 36.2524 232.77 35.057C233.699 34.0074 234.823 33.1482 236.08 32.527C238.47 31.3389 241.095 30.7016 243.764 30.662C246.545 30.5965 249.284 31.3429 251.647 32.81L251.719 32.858C252.883 33.6432 253.865 34.6693 254.598 35.867C255.364 37.0978 255.771 38.5175 255.775 39.967C255.818 41.5985 255.375 43.2061 254.502 44.585L254.421 44.705C254.759 45.0001 255.076 45.3189 255.369 45.659L255.402 45.695C256.731 47.2391 257.457 49.2118 257.445 51.249C257.448 52.9018 257.022 54.527 256.207 55.965C255.419 57.3489 254.338 58.5436 253.039 59.465C251.736 60.3931 250.285 61.0931 248.748 61.535C247.154 61.9974 245.501 62.2281 243.841 62.22Z" fill="#140C07"/>
<path d="M223.73 56.11C222.863 56.9451 221.857 57.622 220.757 58.11C219.644 58.5366 218.458 58.7405 217.267 58.71C215.01 58.7915 212.801 58.0422 211.06 56.604C210.138 55.8367 209.439 54.8349 209.038 53.704C208.649 52.4449 208.466 51.1314 208.496 49.814V37.494C208.461 36.4688 208.8 35.4658 209.45 34.672C209.772 34.2966 210.176 33.9999 210.63 33.8044C211.084 33.6089 211.577 33.5198 212.071 33.544C212.555 33.5251 213.038 33.6181 213.48 33.8158C213.923 34.0135 214.314 34.3106 214.623 34.684C215.268 35.4755 215.606 36.4733 215.574 37.494V48.187C215.536 49.3428 215.915 50.4738 216.642 51.373C217.012 51.803 217.475 52.1423 217.997 52.3645C218.519 52.5868 219.085 52.6862 219.651 52.655C220.354 52.6579 221.042 52.4488 221.625 52.055C222.217 51.6676 222.7 51.1336 223.025 50.505C223.359 49.8749 223.533 49.1722 223.531 48.459V37.494C223.494 36.4689 223.832 35.4655 224.482 34.672C224.804 34.2966 225.208 33.9998 225.662 33.8043C226.116 33.6087 226.609 33.5197 227.103 33.544C227.587 33.5252 228.069 33.6183 228.512 33.816C228.954 34.0137 229.345 34.3107 229.654 34.684C230.299 35.4754 230.637 36.4733 230.605 37.494V54.439C230.633 55.4655 230.323 56.4727 229.723 57.306C229.432 57.7021 229.051 58.0237 228.612 58.2444C228.173 58.4652 227.688 58.5788 227.196 58.576C226.428 58.6015 225.673 58.374 225.046 57.9285C224.42 57.4829 223.958 56.844 223.73 56.11Z" fill="white"/>
<path d="M266.988 61.869C263.696 61.8749 260.52 60.6566 258.076 58.451L258.049 58.424C254.84 55.3226 252.979 51.0842 252.866 46.6228C252.754 42.1615 254.4 37.8349 257.449 34.576C258.659 33.2961 260.116 32.274 261.731 31.5713C263.347 30.8687 265.087 30.4998 266.849 30.487C268.435 30.4555 270.007 30.7827 271.449 31.444C271.792 31.6116 272.126 31.7975 272.449 32.001C273.566 31.132 274.944 30.6655 276.36 30.677C277.231 30.6718 278.094 30.8395 278.899 31.1703C279.704 31.5011 280.436 31.9885 281.052 32.6041C281.668 33.2198 282.155 33.9515 282.486 34.7569C282.816 35.5623 282.984 36.4253 282.979 37.296V54.527C283.012 56.2962 282.417 58.0198 281.3 59.392C280.7 60.1365 279.937 60.7334 279.071 61.1367C278.204 61.54 277.256 61.7388 276.3 61.718C274.881 61.7418 273.498 61.2717 272.388 60.388C272.135 60.55 271.883 60.688 271.627 60.83C270.185 61.5408 268.595 61.8971 266.988 61.869ZM267.588 43.112C267.401 43.0919 267.213 43.129 267.048 43.2183C266.883 43.3076 266.749 43.4449 266.664 43.612C266.179 44.3298 265.927 45.1797 265.942 46.046C265.909 47.0181 266.155 47.9793 266.649 48.817C266.823 49.097 266.974 49.268 267.588 49.268C267.937 49.2913 268.284 49.1958 268.572 48.997C268.918 48.7459 269.191 48.4059 269.36 48.013C269.59 47.5054 269.707 46.9541 269.703 46.397C269.76 45.4187 269.515 44.4464 269.003 43.611C268.91 43.449 268.654 43.111 267.603 43.111L267.588 43.112Z" fill="#140C07"/>
<path d="M249.437 45.155C250.815 45.7064 252.058 46.549 253.081 47.625C253.95 48.627 254.425 49.9099 254.42 51.236C254.429 52.371 254.142 53.4888 253.587 54.479C253.015 55.4828 252.23 56.3493 251.287 57.018C250.258 57.7457 249.114 58.2941 247.902 58.64C246.581 59.0218 245.212 59.211 243.837 59.202C241.641 59.2611 239.463 58.7851 237.491 57.815C236.38 57.2158 235.385 56.4242 234.551 55.477C233.802 54.6894 233.332 53.6782 233.212 52.598C233.22 52.2412 233.309 51.8909 233.472 51.5736C233.635 51.2562 233.869 50.9801 234.154 50.766C234.767 50.2383 235.553 49.9537 236.362 49.966C236.861 49.9254 237.362 50.0119 237.818 50.2176C238.274 50.4233 238.671 50.7413 238.971 51.142L239.723 52.174C240.118 52.7563 240.657 53.2261 241.288 53.537C241.928 53.8768 242.642 54.0546 243.367 54.055C244.393 54.0966 245.404 53.79 246.234 53.185C246.591 52.9286 246.88 52.5891 247.077 52.1959C247.273 51.8027 247.371 51.3675 247.362 50.928C247.362 49.2513 246.116 48.3347 243.625 48.178C242.778 48.1636 241.944 47.9632 241.182 47.591C240.849 47.3986 240.574 47.1213 240.384 46.7875C240.193 46.4536 240.095 46.0752 240.099 45.691C240.069 45.2196 240.216 44.754 240.511 44.385C240.789 44.078 241.141 43.8479 241.534 43.717C242.151 43.5186 242.779 43.3541 243.414 43.224C245.339 42.824 246.303 41.9696 246.305 40.661C246.28 40.3807 246.188 40.1106 246.036 39.8735C245.885 39.6363 245.679 39.4389 245.435 39.298C244.856 38.9416 244.186 38.7616 243.506 38.78C242.177 38.8412 240.922 39.4146 240.006 40.38C239.212 41.2056 238.14 41.7082 236.997 41.791C236.245 41.8093 235.512 41.5502 234.939 41.063C234.679 40.8676 234.467 40.6158 234.319 40.3265C234.17 40.0372 234.089 39.718 234.082 39.393C234.089 38.512 234.425 37.6654 235.024 37.019C235.7 36.2614 236.518 35.6432 237.431 35.199C238.435 34.6941 239.495 34.3113 240.59 34.059C241.625 33.8043 242.686 33.6701 243.752 33.659C245.954 33.5923 248.128 34.1729 250.004 35.329C250.816 35.8736 251.502 36.5867 252.014 37.42C252.492 38.1811 252.748 39.0603 252.754 39.959C252.795 41.0011 252.525 42.0318 251.978 42.92C251.306 43.8427 250.438 44.6058 249.437 45.155Z" fill="white"/>
<path d="M289.683 61.727C288.752 61.7505 287.828 61.5645 286.979 61.1828C286.129 60.8012 285.377 60.2336 284.776 59.522C283.665 58.1864 283.071 56.496 283.103 54.759V43.181C281.68 42.9745 280.383 42.2536 279.455 41.1547C278.528 40.0559 278.036 38.6553 278.072 37.218C278.08 36.1437 278.363 35.0893 278.893 34.155C279.441 33.1257 280.296 32.2927 281.339 31.772C282.631 31.1986 284.04 30.9378 285.452 31.011H293.633C295.553 30.8737 297.46 31.418 299.019 32.548C299.683 33.1299 300.216 33.847 300.58 34.6513C300.945 35.4555 301.133 36.3284 301.133 37.2115C301.133 38.0946 300.945 38.9675 300.58 39.7717C300.216 40.576 299.683 41.2931 299.019 41.875C298.198 42.536 297.225 42.9827 296.188 43.175V54.759C296.234 56.4953 295.649 58.1895 294.542 59.528C293.949 60.2358 293.205 60.801 292.363 61.1816C291.522 61.5623 290.606 61.7487 289.683 61.727Z" fill="#140C07"/>
<path d="M272.909 55.923C272.187 56.8396 271.291 57.604 270.272 58.172C269.247 58.662 268.119 58.8993 266.983 58.864C264.423 58.863 261.955 57.907 260.063 56.183C257.473 53.6363 255.974 50.1831 255.882 46.5522C255.79 42.9212 257.113 39.3966 259.57 36.722C260.503 35.7193 261.63 34.9167 262.883 34.3628C264.135 33.8089 265.487 33.5154 266.857 33.5C267.989 33.4685 269.113 33.6938 270.146 34.159C271.201 34.7072 272.155 35.4305 272.968 36.298C273.207 35.4695 273.738 34.7554 274.463 34.2879C275.187 33.8204 276.056 33.6309 276.91 33.7545C277.763 33.8782 278.543 34.3065 279.105 34.9604C279.667 35.6144 279.974 36.4497 279.968 37.312V54.543C279.996 55.6173 279.642 56.6667 278.968 57.504C278.649 57.9015 278.242 58.219 277.778 58.4312C277.315 58.6434 276.808 58.7443 276.299 58.726C274.699 58.7207 273.569 57.7863 272.909 55.923ZM262.944 46.048C262.907 47.5808 263.305 49.0927 264.093 50.408C264.45 51.0076 264.964 51.4986 265.58 51.8283C266.195 52.1579 266.889 52.3137 267.586 52.279C268.565 52.3001 269.524 52.0071 270.324 51.443C271.1 50.8861 271.712 50.1321 272.099 49.259C272.501 48.3602 272.706 47.3856 272.699 46.401C272.766 44.8016 272.326 43.222 271.441 41.888C270.996 41.2933 270.409 40.8194 269.733 40.5094C269.058 40.1994 268.316 40.0631 267.575 40.113C266.895 40.0943 266.221 40.2535 265.621 40.5748C265.021 40.8961 264.516 41.3684 264.154 41.945C263.343 43.1581 262.921 44.5892 262.944 46.048Z" fill="white"/>
<path d="M309.863 61.869C307.808 61.8616 305.777 61.4302 303.897 60.6019C302.016 59.7735 300.327 58.5661 298.935 57.055C296.241 54.105 294.814 50.215 294.961 46.223C294.957 44.2507 295.277 42.2912 295.909 40.423C296.543 38.5211 297.577 36.777 298.942 35.308C300.325 33.8111 301.999 32.6115 303.861 31.782C305.732 30.9342 307.761 30.4951 309.815 30.494C311.859 30.501 313.879 30.9367 315.745 31.773C317.63 32.5955 319.317 33.8109 320.694 35.338C322.037 36.8034 323.056 38.5363 323.682 40.423C324.301 42.2938 324.612 44.2526 324.603 46.223C324.608 48.1661 324.296 50.097 323.68 51.94C322.689 54.8224 320.828 57.3259 318.353 59.1046C315.878 60.8832 312.912 61.8492 309.864 61.869H309.863ZM309.652 43.112C309.459 43.0946 309.265 43.137 309.096 43.2334C308.928 43.3297 308.793 43.4755 308.71 43.651C308.207 44.4099 307.944 45.3034 307.958 46.214C307.96 46.819 308.077 47.4181 308.301 47.98C308.449 48.401 308.705 48.7756 309.044 49.066C309.21 49.2089 309.425 49.2807 309.644 49.266C309.935 49.2879 310.223 49.2009 310.453 49.022C310.82 48.725 311.105 48.3387 311.281 47.9C311.517 47.3674 311.64 46.7916 311.642 46.209C311.64 45.6061 311.517 45.0097 311.281 44.455C311.119 44.0228 310.842 43.6427 310.481 43.355C310.246 43.1708 309.952 43.0806 309.654 43.102L309.652 43.112Z" fill="#140C07"/>
<path d="M293.185 40.431V54.763C293.225 55.7892 292.891 56.795 292.246 57.594C291.932 57.9636 291.538 58.2564 291.094 58.4499C290.649 58.6434 290.166 58.7323 289.682 58.71C289.189 58.7314 288.698 58.6398 288.245 58.4422C287.793 58.2447 287.392 57.9463 287.073 57.57C286.42 56.7834 286.077 55.7849 286.11 54.763V40.431C283.904 40.431 282.5 40.079 281.898 39.375C281.354 38.7879 281.06 38.0122 281.077 37.212C281.085 36.6461 281.238 36.0918 281.522 35.602C281.773 35.1075 282.177 34.7076 282.674 34.462C283.554 34.1079 284.502 33.9549 285.448 34.014H293.63C294.848 33.9022 296.068 34.2007 297.096 34.862C297.436 35.1481 297.706 35.5092 297.883 35.9169C298.061 36.3246 298.142 36.7679 298.119 37.212C298.138 37.6567 298.054 38.0999 297.875 38.5072C297.695 38.9146 297.425 39.2754 297.084 39.562C296.399 40.1433 295.099 40.433 293.185 40.431Z" fill="white"/>
<path d="M327.109 71.364C326.177 71.3866 325.252 71.1965 324.404 70.808C323.556 70.4195 322.808 69.8429 322.217 69.122C321.132 67.7923 320.55 66.1229 320.574 64.407V37.87C320.537 36.1969 321.023 34.554 321.964 33.17C322.525 32.377 323.274 31.7353 324.143 31.3022C325.013 30.8691 325.976 30.6581 326.947 30.688C328.402 30.6437 329.824 31.1231 330.955 32.039C332.545 31.05 334.382 30.5301 336.255 30.539C339.652 30.4575 342.943 31.7278 345.405 34.071L345.432 34.098C346.978 35.6121 348.188 37.435 348.982 39.448C349.775 41.4285 350.183 43.5425 350.182 45.676C350.195 48.2822 349.685 50.8646 348.682 53.27C347.684 55.7064 346.044 57.8267 343.937 59.405C341.7 61.0557 338.982 61.9228 336.202 61.872C335.347 61.8729 334.494 61.7722 333.663 61.572V64.412C333.704 66.1388 333.123 67.8229 332.026 69.157C331.426 69.8718 330.672 70.4416 329.82 70.8238C328.969 71.206 328.042 71.3907 327.109 71.364ZM335.479 43.112C335.145 43.0863 334.813 43.1791 334.54 43.374C334.199 43.6353 333.938 43.9864 333.785 44.388C333.548 44.9675 333.429 45.5881 333.433 46.214C333.429 46.8331 333.549 47.4468 333.785 48.019C333.941 48.4305 334.207 48.7909 334.555 49.06C334.822 49.2546 335.15 49.3475 335.479 49.322C335.567 49.3276 335.656 49.3143 335.739 49.2831C335.822 49.2519 335.897 49.2035 335.96 49.141C336.31 48.8263 336.577 48.4294 336.736 47.986C336.958 47.4235 337.073 46.8246 337.076 46.22C337.072 45.6081 336.954 45.0023 336.73 44.433C336.578 43.9972 336.319 43.6069 335.975 43.299C335.91 43.2349 335.833 43.1851 335.747 43.1528C335.662 43.1206 335.571 43.1067 335.48 43.112H335.479Z" fill="#140C07"/>
<path d="M297.972 46.214C297.966 44.5709 298.232 42.9381 298.76 41.382C299.257 39.8835 300.071 38.5095 301.146 37.353C302.255 36.1485 303.598 35.184 305.094 34.519C306.578 33.8458 308.189 33.4971 309.818 33.496C311.444 33.5024 313.051 33.851 314.533 34.519C316.033 35.1704 317.376 36.1369 318.469 37.353C319.535 38.5092 320.341 39.8798 320.834 41.373C321.35 42.9345 321.608 44.5696 321.598 46.214C321.604 47.8317 321.346 49.4396 320.834 50.974C320.335 52.4679 319.529 53.8412 318.469 55.006C317.378 56.206 316.051 57.1678 314.572 57.831C313.092 58.4942 311.491 58.8445 309.869 58.86C308.228 58.8523 306.606 58.5061 305.105 57.8429C303.603 57.1798 302.255 56.214 301.144 55.006C298.971 52.6069 297.831 49.4479 297.972 46.214ZM304.952 46.214C304.955 47.187 305.139 48.151 305.494 49.057C305.825 49.9566 306.384 50.755 307.116 51.374C307.826 51.9708 308.728 52.2905 309.655 52.274C310.625 52.294 311.572 51.9758 312.333 51.374C313.096 50.7664 313.691 49.9749 314.063 49.074C314.455 48.1687 314.659 47.1934 314.663 46.207C314.657 45.2102 314.453 44.2246 314.063 43.307C313.699 42.3977 313.102 41.5999 312.333 40.993C311.567 40.3911 310.617 40.0731 309.643 40.093C308.951 40.0743 308.266 40.2397 307.659 40.5723C307.052 40.9049 306.543 41.3928 306.186 41.986C305.359 43.2432 304.929 44.7202 304.952 46.225V46.214Z" fill="white"/>
<path d="M330.424 36.387C331.127 35.5143 332.014 34.8071 333.021 34.3158C334.028 33.8244 335.131 33.5609 336.252 33.544C337.552 33.5064 338.846 33.7263 340.061 34.1911C341.276 34.6559 342.386 35.3563 343.329 36.252C344.575 37.4724 345.548 38.943 346.184 40.567C346.841 42.1923 347.181 43.9287 347.184 45.682C347.198 47.889 346.766 50.0762 345.914 52.112C345.124 54.054 343.819 55.7442 342.141 57.001C340.424 58.2629 338.338 58.9199 336.208 58.869C334.179 58.821 332.226 58.0931 330.66 56.802V64.417C330.696 65.4388 330.363 66.4395 329.722 67.236C329.402 67.6115 329 67.9086 328.547 68.1041C328.094 68.2997 327.603 68.3886 327.11 68.364C326.622 68.3843 326.135 68.2911 325.689 68.0917C325.243 67.8924 324.849 67.5923 324.538 67.215C323.895 66.4257 323.557 65.4324 323.584 64.415V37.88C323.549 36.8238 323.845 35.7831 324.432 34.904C324.715 34.5071 325.094 34.1887 325.534 33.9788C325.974 33.7689 326.46 33.6743 326.947 33.704C327.709 33.6632 328.459 33.9054 329.053 34.384C329.649 34.9468 330.117 35.6313 330.425 36.391L330.424 36.387ZM330.424 46.214C330.422 47.2221 330.618 48.2208 330.999 49.154C331.358 50.06 331.956 50.8515 332.729 51.444C333.519 52.0409 334.489 52.3518 335.479 52.326C336.388 52.3368 337.269 52.006 337.946 51.399C338.663 50.7617 339.213 49.9578 339.546 49.058C339.9 48.1519 340.084 47.188 340.087 46.215C340.083 45.2382 339.9 44.2705 339.546 43.36C339.216 42.4586 338.666 41.6539 337.946 41.019C337.264 40.4232 336.385 40.1025 335.479 40.119C334.491 40.0933 333.523 40.3996 332.729 40.989C331.954 41.5762 331.356 42.3654 330.999 43.27C330.618 44.2047 330.423 45.2047 330.424 46.214Z" fill="white"/>
</svg>
